<svg width="686" height="797" viewBox="0 0 686 797" fill="none" xmlns="http://www.w3.org/2000/svg">
<path d="M276.464 131.065L276.465 131.076C277.04 135.921 279.976 144.475 283.261 151.912C284.894 155.608 286.579 158.951 288.047 161.347C288.703 162.418 289.29 163.257 289.784 163.844C289.827 163.671 289.871 163.48 289.913 163.268C290.214 161.777 290.411 159.639 290.411 157.214C290.411 145.769 294.563 134.129 301.263 124.469C307.96 114.814 317.285 107.015 327.761 103.38L327.763 103.378C340.652 98.9242 353.574 87.8341 359.009 76.4757L359.019 76.4562C361.979 70.4903 363.226 62.1982 362.757 53.7308C362.289 45.272 360.119 36.8501 356.457 30.6374L356.456 30.6353C353.061 24.8622 345.309 16.4614 338.326 10.1562C334.84 7.00878 331.64 4.47007 329.361 3.07326C329.072 2.89625 328.811 2.74565 328.577 2.61884C328.748 3.05379 328.95 3.55602 329.177 4.11604C329.668 5.32524 330.268 6.77897 330.922 8.36599C331.303 9.28846 331.702 10.2557 332.108 11.2464C338.391 25.1221 341.222 36.8306 340.384 46.6158C339.539 56.4898 334.965 64.2928 326.749 70.2544C323.203 72.9377 314.466 78.17 307.392 81.7773C284.495 93.7221 273.949 110.921 276.464 131.065ZM290.608 164.636C290.608 164.634 290.603 164.631 290.594 164.627C290.603 164.634 290.608 164.636 290.608 164.636ZM327.984 1.02295C327.978 0.996331 327.975 0.991361 327.982 1.01603C327.982 1.01776 327.983 1.02013 327.984 1.02295Z" fill="#444444"/>
<path d="M327.119 2.02072C327.119 2.02094 327.123 2.02117 327.131 2.02138M276.464 131.065L276.465 131.076C277.04 135.921 279.976 144.475 283.261 151.912C284.894 155.608 286.579 158.951 288.047 161.347C288.703 162.418 289.29 163.257 289.784 163.844C289.827 163.671 289.871 163.48 289.913 163.268C290.214 161.777 290.411 159.639 290.411 157.214C290.411 145.769 294.563 134.129 301.263 124.469C307.96 114.814 317.285 107.015 327.761 103.38L327.763 103.378C340.652 98.9242 353.574 87.8341 359.009 76.4757L359.019 76.4562C361.979 70.4903 363.226 62.1982 362.757 53.7308C362.289 45.272 360.119 36.8501 356.457 30.6374L356.456 30.6353C353.061 24.8622 345.309 16.4614 338.326 10.1562C334.84 7.00878 331.64 4.47007 329.361 3.07326C329.072 2.89625 328.811 2.74565 328.577 2.61884C328.748 3.05379 328.95 3.55602 329.177 4.11604C329.668 5.32524 330.268 6.77897 330.922 8.36599C331.303 9.28846 331.702 10.2557 332.108 11.2464C338.391 25.1221 341.222 36.8306 340.384 46.6158C339.539 56.4898 334.965 64.2928 326.749 70.2544C323.203 72.9377 314.466 78.17 307.392 81.7773C284.495 93.7221 273.949 110.921 276.464 131.065ZM290.608 164.636C290.608 164.634 290.603 164.631 290.594 164.627C290.603 164.634 290.608 164.636 290.608 164.636ZM327.984 1.02295C327.978 0.996331 327.975 0.991361 327.982 1.01603C327.982 1.01776 327.983 1.02013 327.984 1.02295Z" stroke="#444444" stroke-width="1.5"/>
<path d="M376.973 63.7626V63.7453V63.728L377.175 57.3401L380.37 56.6584L382.979 61.6333C385.323 65.8702 387.317 73.0653 388.556 80.4139C389.798 87.782 390.33 95.5851 389.598 101.097C388.342 112.875 380.901 126.614 371.522 134.276C369.659 135.899 366.056 138.162 361.883 140.541C357.646 142.955 352.684 145.567 348.031 147.874L348.012 147.885L347.992 147.893C338.391 152.358 332.528 156.073 328.339 161.054C324.144 166.042 321.499 172.452 318.693 182.588L318.688 182.607L318.682 182.627C317.67 185.939 316.649 188.978 315.772 191.204C315.336 192.31 314.917 193.262 314.536 193.959C314.349 194.301 314.135 194.647 313.895 194.931C313.775 195.071 313.605 195.249 313.381 195.404C313.168 195.552 312.769 195.772 312.23 195.772C311.036 195.772 310.306 194.944 309.948 194.413C309.545 193.818 309.229 193.046 308.966 192.211C308.432 190.514 307.991 188.132 307.635 185.256C306.919 179.478 306.516 171.424 306.516 162.206V162.193C306.617 148.361 308.271 138.628 313.125 131.378C318.014 124.08 325.953 119.581 337.857 115.746C347.697 112.492 357.451 104.619 364.788 94.8927C372.126 85.1637 376.876 73.8075 376.973 63.7626Z" fill="#444444" stroke="#444444" stroke-width="1.5"/>
<path d="M473.908 275.448C474.01 276.763 474.109 277.899 474.203 278.823C474.485 278.681 474.786 278.527 475.106 278.365C477.159 277.309 479.892 275.831 482.778 274.154L482.799 274.141C488.636 270.832 499.089 266.775 505.879 264.938L505.894 264.933L505.912 264.929C528.81 259.097 549.292 262.631 564.36 273.87C579.412 285.099 588.733 303.773 589.863 327.615C591.711 366.287 574.847 400.487 541.492 425.453C523.943 438.607 492.292 454.094 468.904 460.952L468.897 460.954L451.648 466.087L445.443 476.714L445.438 476.724C431.476 500.346 407.885 519.061 380.993 527.817C373.837 530.147 369.413 531.402 360.177 532.043C351.091 532.675 337.25 532.722 311.223 532.722H311.214L310.884 532.72C284.382 532.623 270.704 532.571 261.875 531.891C252.823 531.194 248.726 529.823 241.39 527.196C221.522 520.085 208.327 511.499 193.989 495.856C180.063 480.825 171.464 465.771 164.337 443.759C153.961 412.08 152.558 398.213 151.552 318.758C151.049 282.56 150.796 263.916 151.201 253.339C151.404 248.048 151.774 244.646 152.401 242.019C153.041 239.343 153.93 237.549 155.007 235.513C157.804 229.975 162.539 225.022 167.846 222.384C171.987 220.218 175.487 219.236 193.922 218.714C212.459 218.188 246.524 218.139 312.23 218.139C316.836 218.139 321.296 218.139 325.615 218.139C391.426 218.132 424.362 218.13 441.857 219.543C451.15 220.296 456.47 221.464 460.106 223.481C463.293 225.251 465.054 227.636 466.94 230.192C467.238 230.594 467.537 230.999 467.848 231.408C471.956 236.843 472.708 241.965 473.109 260.175C473.309 266.136 473.609 271.542 473.908 275.448ZM434.853 424.022L434.855 424.014C441.623 398.354 442.838 380.441 442.838 312.741V248.221H312.23H181.62V308.947C181.62 378.251 183.443 401.524 190.795 426.552L190.797 426.556C196.781 447.133 204.714 462.94 215.136 474.835C225.534 486.7 238.498 494.769 254.736 499.746C264.805 502.819 272.681 503.438 311.827 503.438C327.92 503.438 340.053 503.239 349.053 502.793C358.105 502.343 363.816 501.65 367.169 500.726L367.19 500.722C400.014 492.002 424.321 464.823 434.853 424.022ZM555.767 310.233V310.23C554.639 307.809 552.921 305.102 551.06 302.704C549.178 300.281 547.273 298.331 545.828 297.321C544.418 296.334 542.21 295.397 539.4 294.613C536.624 293.841 533.403 293.257 530.073 292.904C523.34 292.196 516.514 292.476 512.225 293.832L512.221 293.834C504.276 296.332 490.408 303.778 481.281 310.469L473.706 316.015L473.512 343.486C473.512 343.49 473.512 343.492 473.512 343.496C473.512 374.107 470.891 404.028 466.411 422.821C465.72 425.862 465.232 428.629 464.991 430.609C464.971 430.782 464.95 430.949 464.935 431.105C465.148 431.044 465.378 430.975 465.623 430.899C467.148 430.425 469.079 429.728 471.319 428.852C475.795 427.099 481.394 424.667 487.218 421.971C498.906 416.561 511.293 410.186 517.277 406.198C523.414 402.043 530.674 395.348 537.194 388.09C543.723 380.826 549.364 373.159 552.363 367.118C554.952 361.784 556.481 358.06 557.46 353.823C558.446 349.557 558.894 344.68 559.196 337.015V336.992C559.599 329.098 559.637 324.382 559.137 320.654C558.649 317.008 557.636 314.232 555.767 310.233Z" fill="#444444" stroke="#444444" stroke-width="2"/>
<path d="M79.8 554.55C79.8 598.417 70.7 655.35 52.5 725.35C40.8333 772.95 32.6667 796.75 28 796.75C24.7333 796.75 20.8833 794.183 16.45 789.05C12.25 783.917 10.15 779.95 10.15 777.15C10.15 774.35 13.5333 759.883 20.3 733.75C27.0667 707.617 33.8333 675.533 40.6 637.5C47.3667 599.233 50.75 564.817 50.75 534.25C50.75 530.983 51.2167 528.65 52.15 527.25C53.0833 525.85 55.0667 525.15 58.1 525.15C61.1333 525.15 65.45 528.533 71.05 535.3C76.8833 541.833 79.8 548.25 79.8 554.55ZM189.741 623.15C200.241 623.15 209.924 628.517 218.791 639.25C227.658 649.75 232.091 659.317 232.091 667.95C232.091 676.35 229.174 684.983 223.341 693.85C226.141 697.35 227.541 700.383 227.541 702.95C227.541 709.483 226.024 720.683 222.991 736.55C220.191 752.417 218.441 762.8 217.741 767.7C217.274 772.6 216.808 776.567 216.341 779.6C215.874 782.4 215.291 785.2 214.591 788C213.658 793.833 211.558 796.75 208.291 796.75C204.091 796.75 200.591 793.133 197.791 785.9C195.224 778.433 193.708 768.867 193.241 757.2C172.474 783.567 153.224 796.75 135.491 796.75C124.758 796.75 114.141 792.2 103.641 783.1C93.3743 773.767 88.241 764.2 88.241 754.4C88.241 740.4 93.3743 723.133 103.641 702.6C113.908 681.833 127.208 663.4 143.541 647.3C159.874 631.2 175.274 623.15 189.741 623.15ZM205.841 684.75C205.841 663.05 201.524 652.2 192.891 652.2C183.791 652.2 173.174 658.733 161.041 671.8C148.908 684.633 138.641 699.217 130.241 715.55C121.841 731.883 117.641 744.833 117.641 754.4C117.641 758.367 119.274 761.633 122.541 764.2C125.808 766.533 129.658 767.7 134.091 767.7C145.058 767.7 157.424 760.35 171.191 745.65C184.958 730.717 194.524 712.633 199.891 691.4C200.591 687.9 202.574 685.8 205.841 685.1V684.75ZM299.904 761.75C299.904 766.183 302.47 768.4 307.604 768.4C316.47 768.4 327.204 765.95 339.804 761.05C352.637 755.917 359.754 753.35 361.154 753.35C365.354 753.35 367.454 755.567 367.454 760C367.454 766.767 360.454 774.583 346.454 783.45C332.687 792.317 320.087 796.75 308.654 796.75C297.454 796.75 288.12 793.717 280.654 787.65C273.187 781.35 269.454 774.933 269.454 768.4C269.454 761.867 270.854 753.583 273.654 743.55C276.454 733.283 280.42 719.867 285.554 703.3C290.92 686.5 295.12 672.617 298.154 661.65C287.187 664.217 279.837 665.5 276.104 665.5C272.37 665.5 268.637 663.633 264.904 659.9C261.404 655.933 259.654 652.2 259.654 648.7C259.654 643.1 274.82 637.733 305.154 632.6C309.354 613.233 311.454 596.083 311.454 581.15C311.454 574.15 313.787 570.65 318.454 570.65C322.42 570.65 327.32 573.217 333.154 578.35C338.987 583.25 341.904 588.85 341.904 595.15C341.904 601.45 339.92 612.533 335.954 628.4C349.254 627.233 359.87 626.65 367.804 626.65C381.804 626.65 388.804 629.683 388.804 635.75C388.804 639.25 384.954 642.167 377.254 644.5C369.787 646.833 353.92 650.45 329.654 655.35C324.754 673.783 318.57 694.9 311.104 718.7C303.637 742.267 299.904 756.617 299.904 761.75ZM435.255 761.75C435.255 766.183 437.822 768.4 442.955 768.4C451.822 768.4 462.555 765.95 475.155 761.05C487.988 755.917 495.105 753.35 496.505 753.35C500.705 753.35 502.805 755.567 502.805 760C502.805 766.767 495.805 774.583 481.805 783.45C468.038 792.317 455.438 796.75 444.005 796.75C432.805 796.75 423.472 793.717 416.005 787.65C408.538 781.35 404.805 774.933 404.805 768.4C404.805 761.867 406.205 753.583 409.005 743.55C411.805 733.283 415.772 719.867 420.905 703.3C426.272 686.5 430.472 672.617 433.505 661.65C422.538 664.217 415.188 665.5 411.455 665.5C407.722 665.5 403.988 663.633 400.255 659.9C396.755 655.933 395.005 652.2 395.005 648.7C395.005 643.1 410.172 637.733 440.505 632.6C444.705 613.233 446.805 596.083 446.805 581.15C446.805 574.15 449.138 570.65 453.805 570.65C457.772 570.65 462.672 573.217 468.505 578.35C474.338 583.25 477.255 588.85 477.255 595.15C477.255 601.45 475.272 612.533 471.305 628.4C484.605 627.233 495.222 626.65 503.155 626.65C517.155 626.65 524.155 629.683 524.155 635.75C524.155 639.25 520.305 642.167 512.605 644.5C505.138 646.833 489.272 650.45 465.005 655.35C460.105 673.783 453.922 694.9 446.455 718.7C438.988 742.267 435.255 756.617 435.255 761.75ZM671.057 681.25C671.057 693.617 664.29 703.767 650.757 711.7C637.457 719.4 622.29 723.25 605.257 723.25C588.457 723.25 573.173 721.383 559.407 717.65C556.14 727.917 554.507 737.133 554.507 745.3C554.507 753.233 556.957 759.417 561.857 763.85C566.99 768.283 575.273 770.5 586.707 770.5C598.373 770.5 610.273 768.517 622.407 764.55C634.773 760.35 641.54 758.25 642.707 758.25C648.773 758.25 651.807 760.583 651.807 765.25C651.807 771.55 644.69 778.433 630.457 785.9C616.223 793.133 602.34 796.75 588.807 796.75C570.607 796.75 555.79 791.383 544.357 780.65C532.923 769.683 527.207 755.917 527.207 739.35C527.207 722.783 531.64 705.517 540.507 687.55C549.373 669.35 560.807 654.067 574.807 641.7C588.807 629.333 602.69 623.15 616.457 623.15C630.223 623.15 642.707 629.683 653.907 642.75C665.34 655.817 671.057 668.65 671.057 681.25ZM618.207 650.8C609.573 650.8 600.59 655.35 591.257 664.45C581.923 673.317 573.99 684.4 567.457 697.7C576.79 699.8 587.407 700.85 599.307 700.85C611.207 700.85 621.59 698.983 630.457 695.25C639.323 691.283 643.757 686.15 643.757 679.85C643.757 673.55 640.84 667.133 635.007 660.6C629.407 654.067 623.807 650.8 618.207 650.8Z" fill="#444444"/>
</svg>
