<svg width="1223" height="393" viewBox="0 0 1223 393" fill="none" xmlns="http://www.w3.org/2000/svg">
<path d="M430.88 73.78C430.88 131.433 418.92 206.26 395 298.26C379.667 360.82 368.933 392.1 362.8 392.1C358.507 392.1 353.447 388.727 347.62 381.98C342.1 375.233 339.34 370.02 339.34 366.34C339.34 362.66 343.787 343.647 352.68 309.3C361.573 274.953 370.467 232.787 379.36 182.8C388.253 132.507 392.7 87.2733 392.7 47.1C392.7 42.8066 393.313 39.74 394.54 37.9C395.767 36.06 398.373 35.14 402.36 35.14C406.347 35.14 412.02 39.5867 419.38 48.48C427.047 57.0667 430.88 65.5 430.88 73.78ZM575.374 163.94C589.174 163.94 601.901 170.993 613.554 185.1C625.207 198.9 631.034 211.473 631.034 222.82C631.034 233.86 627.201 245.207 619.534 256.86C623.214 261.46 625.054 265.447 625.054 268.82C625.054 277.407 623.061 292.127 619.074 312.98C615.394 333.833 613.094 347.48 612.174 353.92C611.561 360.36 610.947 365.573 610.334 369.56C609.721 373.24 608.954 376.92 608.034 380.6C606.807 388.267 604.047 392.1 599.754 392.1C594.234 392.1 589.634 387.347 585.954 377.84C582.581 368.027 580.587 355.453 579.974 340.12C552.681 374.773 527.381 392.1 504.074 392.1C489.967 392.1 476.014 386.12 462.214 374.16C448.721 361.893 441.974 349.32 441.974 336.44C441.974 318.04 448.721 295.347 462.214 268.36C475.707 241.067 493.187 216.84 514.654 195.68C536.121 174.52 556.361 163.94 575.374 163.94ZM596.534 244.9C596.534 216.38 590.861 202.12 579.514 202.12C567.554 202.12 553.601 210.707 537.654 227.88C521.707 244.747 508.214 263.913 497.174 285.38C486.134 306.847 480.614 323.867 480.614 336.44C480.614 341.653 482.761 345.947 487.054 349.32C491.347 352.387 496.407 353.92 502.234 353.92C516.647 353.92 532.901 344.26 550.994 324.94C569.087 305.313 581.661 281.547 588.714 253.64C589.634 249.04 592.241 246.28 596.534 245.36V244.9ZM720.159 346.1C720.159 351.927 723.532 354.84 730.279 354.84C741.932 354.84 756.039 351.62 772.599 345.18C789.466 338.433 798.819 335.06 800.659 335.06C806.179 335.06 808.939 337.973 808.939 343.8C808.939 352.693 799.739 362.967 781.339 374.62C763.246 386.273 746.686 392.1 731.659 392.1C716.939 392.1 704.672 388.113 694.859 380.14C685.046 371.86 680.139 363.427 680.139 354.84C680.139 346.253 681.979 335.367 685.659 322.18C689.339 308.687 694.552 291.053 701.299 269.28C708.352 247.2 713.872 228.953 717.859 214.54C703.446 217.913 693.786 219.6 688.879 219.6C683.972 219.6 679.066 217.147 674.159 212.24C669.559 207.027 667.259 202.12 667.259 197.52C667.259 190.16 687.192 183.107 727.059 176.36C732.579 150.907 735.339 128.367 735.339 108.74C735.339 99.54 738.406 94.94 744.539 94.94C749.752 94.94 756.192 98.3133 763.859 105.06C771.526 111.5 775.359 118.86 775.359 127.14C775.359 135.42 772.752 149.987 767.539 170.84C785.019 169.307 798.972 168.54 809.399 168.54C827.799 168.54 836.999 172.527 836.999 180.5C836.999 185.1 831.939 188.933 821.819 192C812.006 195.067 791.152 199.82 759.259 206.26C752.819 230.487 744.692 258.24 734.879 289.52C725.066 320.493 720.159 339.353 720.159 346.1ZM898.05 346.1C898.05 351.927 901.423 354.84 908.17 354.84C919.823 354.84 933.93 351.62 950.49 345.18C967.356 338.433 976.71 335.06 978.55 335.06C984.07 335.06 986.83 337.973 986.83 343.8C986.83 352.693 977.63 362.967 959.23 374.62C941.136 386.273 924.576 392.1 909.55 392.1C894.83 392.1 882.563 388.113 872.75 380.14C862.936 371.86 858.03 363.427 858.03 354.84C858.03 346.253 859.87 335.367 863.55 322.18C867.23 308.687 872.443 291.053 879.19 269.28C886.243 247.2 891.763 228.953 895.75 214.54C881.336 217.913 871.676 219.6 866.77 219.6C861.863 219.6 856.956 217.147 852.05 212.24C847.45 207.027 845.15 202.12 845.15 197.52C845.15 190.16 865.083 183.107 904.95 176.36C910.47 150.907 913.23 128.367 913.23 108.74C913.23 99.54 916.296 94.94 922.43 94.94C927.643 94.94 934.083 98.3133 941.75 105.06C949.416 111.5 953.25 118.86 953.25 127.14C953.25 135.42 950.643 149.987 945.43 170.84C962.91 169.307 976.863 168.54 987.29 168.54C1005.69 168.54 1014.89 172.527 1014.89 180.5C1014.89 185.1 1009.83 188.933 999.71 192C989.896 195.067 969.043 199.82 937.15 206.26C930.71 230.487 922.583 258.24 912.77 289.52C902.956 320.493 898.05 339.353 898.05 346.1ZM1207.96 240.3C1207.96 256.553 1199.07 269.893 1181.28 280.32C1163.8 290.44 1143.87 295.5 1121.48 295.5C1099.4 295.5 1079.31 293.047 1061.22 288.14C1056.93 301.633 1054.78 313.747 1054.78 324.48C1054.78 334.907 1058 343.033 1064.44 348.86C1071.19 354.687 1082.07 357.6 1097.1 357.6C1112.43 357.6 1128.07 354.993 1144.02 349.78C1160.27 344.26 1169.17 341.5 1170.7 341.5C1178.67 341.5 1182.66 344.567 1182.66 350.7C1182.66 358.98 1173.31 368.027 1154.6 377.84C1135.89 387.347 1117.65 392.1 1099.86 392.1C1075.94 392.1 1056.47 385.047 1041.44 370.94C1026.41 356.527 1018.9 338.433 1018.9 316.66C1018.9 294.887 1024.73 272.193 1036.38 248.58C1048.03 224.66 1063.06 204.573 1081.46 188.32C1099.86 172.067 1118.11 163.94 1136.2 163.94C1154.29 163.94 1170.7 172.527 1185.42 189.7C1200.45 206.873 1207.96 223.74 1207.96 240.3ZM1138.5 200.28C1127.15 200.28 1115.35 206.26 1103.08 218.22C1090.81 229.873 1080.39 244.44 1071.8 261.92C1084.07 264.68 1098.02 266.06 1113.66 266.06C1129.3 266.06 1142.95 263.607 1154.6 258.7C1166.25 253.487 1172.08 246.74 1172.08 238.46C1172.08 230.18 1168.25 221.747 1160.58 213.16C1153.22 204.573 1145.86 200.28 1138.5 200.28Z" fill="#444444"/>
<path d="M85.8811 96.3301L85.8819 96.3381C86.2707 99.8892 88.257 106.159 90.4799 111.61C91.5846 114.319 92.7245 116.769 93.7175 118.525C94.1613 119.31 94.5582 119.925 94.8929 120.355C94.9221 120.228 94.9515 120.089 94.9803 119.933C95.1838 118.841 95.3169 117.274 95.3169 115.496C95.3169 107.107 98.1259 98.5759 102.659 91.4959C107.189 84.4191 113.498 78.703 120.585 76.0385L120.587 76.0369C129.307 72.7729 138.049 64.6445 141.726 56.3194L141.733 56.3051C143.735 51.9325 144.579 45.8548 144.262 39.6487C143.945 33.4489 142.477 27.2761 139.999 22.7226L139.999 22.721C137.702 18.4896 132.457 12.3323 127.733 7.71097C125.375 5.40409 123.21 3.54337 121.668 2.51958C121.472 2.38985 121.296 2.27946 121.137 2.18652C121.254 2.50531 121.39 2.87342 121.544 3.28388C121.876 4.17016 122.282 5.23566 122.724 6.39885C122.982 7.07497 123.252 7.78393 123.527 8.51001C127.777 18.6801 129.692 27.2618 129.126 34.4338C128.554 41.6708 125.459 47.3901 119.901 51.7596C117.502 53.7262 111.591 57.5613 106.805 60.2052C91.3145 68.96 84.1798 81.5658 85.8811 96.3301ZM95.4498 120.936C95.4498 120.934 95.4468 120.933 95.4409 120.929C95.447 120.934 95.4498 120.936 95.4498 120.936ZM120.736 1.01682C120.732 0.997311 120.731 0.993668 120.735 1.01175C120.735 1.01302 120.736 1.01476 120.736 1.01682Z" fill="#444444"/>
<path d="M120.151 1.74813C120.151 1.74829 120.154 1.74846 120.159 1.74862M85.8811 96.3301L85.8819 96.3381C86.2707 99.8892 88.257 106.159 90.4799 111.61C91.5846 114.319 92.7245 116.769 93.7175 118.525C94.1613 119.31 94.5582 119.925 94.8929 120.355C94.9221 120.228 94.9515 120.089 94.9803 119.933C95.1838 118.841 95.3169 117.274 95.3169 115.496C95.3169 107.107 98.1259 98.5759 102.659 91.4959C107.189 84.4191 113.498 78.703 120.585 76.0385L120.587 76.0369C129.307 72.7729 138.049 64.6445 141.726 56.3194L141.733 56.3051C143.735 51.9325 144.579 45.8548 144.262 39.6487C143.945 33.4489 142.477 27.2761 139.999 22.7226L139.999 22.721C137.702 18.4896 132.457 12.3323 127.733 7.71097C125.375 5.40409 123.21 3.54337 121.668 2.51958C121.472 2.38985 121.296 2.27946 121.137 2.18652C121.254 2.50531 121.39 2.87342 121.544 3.28388C121.876 4.17016 122.282 5.23566 122.724 6.39885C122.982 7.07497 123.252 7.78393 123.527 8.51001C127.777 18.6801 129.692 27.2618 129.126 34.4338C128.554 41.6708 125.459 47.3901 119.901 51.7596C117.502 53.7262 111.591 57.5613 106.805 60.2052C91.3145 68.96 84.1798 81.5658 85.8811 96.3301ZM95.4498 120.936C95.4498 120.934 95.4468 120.933 95.4409 120.929C95.447 120.934 95.4498 120.936 95.4498 120.936ZM120.736 1.01682C120.732 0.997311 120.731 0.993668 120.735 1.01175C120.735 1.01302 120.736 1.01476 120.736 1.01682Z" stroke="#444444" stroke-width="1.5"/>
<path d="M153.879 47.0014V46.9887V46.976L154.016 42.294L156.177 41.7944L157.943 45.4407C159.528 48.5461 160.878 53.8197 161.715 59.2058C162.556 64.6063 162.915 70.3255 162.42 74.3651C161.571 82.9979 156.537 93.0675 150.191 98.6837C148.931 99.8732 146.493 101.532 143.67 103.275C140.804 105.045 137.447 106.96 134.299 108.65L134.286 108.658L134.273 108.665C127.777 111.937 123.81 114.66 120.977 118.311C118.138 121.967 116.349 126.664 114.451 134.093L114.447 134.108L114.443 134.122C113.758 136.55 113.068 138.777 112.474 140.409C112.18 141.219 111.896 141.917 111.638 142.428C111.512 142.679 111.367 142.932 111.204 143.14C111.123 143.243 111.008 143.373 110.857 143.487C110.713 143.595 110.443 143.757 110.078 143.757C109.27 143.757 108.776 143.15 108.534 142.761C108.262 142.325 108.048 141.759 107.87 141.146C107.509 139.903 107.21 138.157 106.969 136.049C106.485 131.814 106.212 125.911 106.212 119.155V119.145C106.281 109.007 107.4 101.873 110.684 96.56C113.991 91.2103 119.362 87.9129 127.416 85.1025C134.073 82.7171 140.672 76.9472 145.635 69.818C150.6 62.6872 153.814 54.3637 153.879 47.0014Z" fill="#444444" stroke="#444444" stroke-width="1.5"/>
<path d="M219.46 202.155C219.528 203.119 219.595 203.952 219.659 204.629C219.849 204.524 220.054 204.412 220.27 204.293C221.659 203.519 223.508 202.435 225.46 201.206L225.474 201.197C229.424 198.772 236.495 195.798 241.089 194.451L241.099 194.448L241.112 194.445C256.603 190.171 270.46 192.761 280.654 200.998C290.837 209.228 297.143 222.916 297.907 240.391C299.158 268.734 287.748 293.802 265.182 312.1C253.31 321.741 231.897 333.092 216.074 338.118L216.069 338.12L204.399 341.882L200.202 349.671L200.199 349.679C190.753 366.992 174.792 380.71 156.599 387.127C151.758 388.835 148.765 389.755 142.516 390.224C136.369 390.687 127.005 390.722 109.397 390.722H109.391L109.168 390.721C91.2382 390.649 81.9846 390.611 76.0111 390.113C69.8868 389.603 67.1155 388.597 62.152 386.672C48.7106 381.46 39.784 375.167 30.0837 363.701C20.6623 352.685 14.8447 341.651 10.0229 325.517C3.00344 302.298 2.05435 292.135 1.37344 233.899C1.03333 207.368 0.861827 193.703 1.13602 185.95C1.27322 182.072 1.52395 179.579 1.94816 177.654C2.38059 175.692 2.98208 174.377 3.71119 172.884C5.60299 168.826 8.80686 165.195 12.3972 163.262C15.1988 161.674 17.5661 160.954 30.0385 160.572C42.5795 160.187 65.6258 160.15 110.078 160.15C113.194 160.15 116.212 160.15 119.133 160.15C163.657 160.146 185.94 160.144 197.775 161.18C204.063 161.732 207.662 162.588 210.122 164.066C212.278 165.364 213.469 167.111 214.746 168.984C214.947 169.279 215.149 169.576 215.359 169.876C218.139 173.86 218.648 177.614 218.919 190.96C219.054 195.33 219.257 199.292 219.46 202.155ZM193.037 311.051L193.039 311.045C197.617 292.238 198.44 279.109 198.44 229.488V182.199H110.078H21.7156V226.708C21.7156 277.504 22.949 294.561 27.9231 312.905L27.9241 312.909C31.9726 327.99 37.3395 339.576 44.3906 348.294C51.4252 356.991 60.1959 362.905 71.1811 366.553C77.993 368.805 83.3215 369.259 109.806 369.259C120.693 369.259 128.902 369.113 134.99 368.786C141.114 368.456 144.978 367.948 147.247 367.271L147.261 367.268C169.468 360.876 185.912 340.956 193.037 311.051ZM274.84 227.65V227.648C274.077 225.874 272.915 223.89 271.655 222.132C270.382 220.356 269.094 218.927 268.116 218.186C267.162 217.463 265.668 216.776 263.767 216.202C261.889 215.636 259.71 215.208 257.457 214.949C252.902 214.43 248.284 214.635 245.382 215.63L245.379 215.631C240.004 217.461 230.622 222.919 224.448 227.823L219.322 231.888L219.191 252.023C219.191 252.026 219.191 252.027 219.191 252.03C219.191 274.466 217.419 296.396 214.388 310.171C213.92 312.399 213.59 314.428 213.427 315.879C213.413 316.006 213.399 316.128 213.389 316.242C213.533 316.198 213.689 316.147 213.855 316.092C214.886 315.744 216.193 315.234 217.708 314.591C220.736 313.307 224.524 311.524 228.464 309.548C236.372 305.583 244.752 300.91 248.8 297.987C252.952 294.942 257.864 290.035 262.275 284.715C266.692 279.391 270.509 273.772 272.537 269.344C274.289 265.434 275.323 262.704 275.986 259.599C276.653 256.473 276.956 252.898 277.16 247.28V247.263C277.432 241.477 277.458 238.021 277.12 235.288C276.79 232.616 276.104 230.581 274.84 227.65Z" fill="#444444" stroke="#444444" stroke-width="2"/>
</svg>
