<svg width="837" height="257" viewBox="0 0 837 257" fill="none" xmlns="http://www.w3.org/2000/svg">
<path d="M56.7299 70.1062L56.7304 70.1112C56.9857 72.3502 58.2898 76.3032 59.7493 79.7402C60.4746 81.4482 61.223 82.9932 61.875 84.1002C62.1664 84.5952 62.427 84.9832 62.6467 85.2542C62.6659 85.1742 62.6852 85.0862 62.7041 84.9882C62.8377 84.2992 62.9251 83.3112 62.9251 82.1902C62.9251 76.9012 64.7694 71.5222 67.7455 67.0582C70.7201 62.5962 74.8624 58.9922 79.5155 57.3122L79.5165 57.3112C85.2416 55.2532 90.9817 50.1282 93.3957 44.8792L93.4002 44.8702C94.7149 42.1132 95.2689 38.2812 95.0606 34.3682C94.8526 30.4592 93.8889 26.5672 92.2621 23.6962L92.2618 23.6952C90.7535 21.0273 87.3101 17.1451 84.2083 14.2313C82.6599 12.7768 81.2386 11.6036 80.2263 10.9581C80.0979 10.8763 79.9819 10.8067 79.8779 10.7481C79.9542 10.9491 80.0439 11.1812 80.1448 11.44C80.3629 11.9988 80.6292 12.6706 80.9199 13.404C81.0888 13.8303 81.266 14.2773 81.4467 14.7351C84.2374 21.1474 85.4948 26.5582 85.1228 31.0802C84.7474 35.6432 82.7156 39.2492 79.0659 42.0042C77.4912 43.2442 73.61 45.6622 70.4679 47.3292C60.2973 52.8492 55.6129 60.7972 56.7299 70.1062ZM63.0124 85.6202C63.0124 85.6192 63.0104 85.6182 63.0065 85.6162C63.0105 85.6192 63.0124 85.6202 63.0124 85.6202ZM79.6145 10.0106C79.612 9.9983 79.6108 9.99601 79.6137 10.0074C79.6139 10.0082 79.6142 10.0093 79.6145 10.0106Z" fill="#3A3A3A"/>
<path d="M79.2305 10.4717C79.2304 10.4718 79.2322 10.4719 79.2356 10.472M56.7299 70.1062L56.7304 70.1112C56.9857 72.3502 58.2898 76.3032 59.7493 79.7402C60.4746 81.4482 61.223 82.9932 61.875 84.1002C62.1664 84.5952 62.427 84.9832 62.6467 85.2542C62.6659 85.1742 62.6852 85.0862 62.7041 84.9882C62.8377 84.2992 62.9251 83.3112 62.9251 82.1902C62.9251 76.9012 64.7694 71.5222 67.7455 67.0582C70.7201 62.5962 74.8624 58.9922 79.5155 57.3122L79.5165 57.3112C85.2416 55.2532 90.9817 50.1282 93.3957 44.8792L93.4002 44.8702C94.7149 42.1132 95.2689 38.2812 95.0606 34.3682C94.8526 30.4592 93.8889 26.5672 92.2621 23.6962L92.2618 23.6952C90.7535 21.0273 87.3101 17.1451 84.2083 14.2313C82.6599 12.7768 81.2386 11.6036 80.2263 10.9581C80.0979 10.8763 79.9819 10.8067 79.8779 10.7481C79.9542 10.9491 80.0439 11.1812 80.1448 11.44C80.3629 11.9988 80.6292 12.6706 80.9199 13.404C81.0888 13.8303 81.266 14.2773 81.4467 14.7351C84.2374 21.1474 85.4948 26.5582 85.1228 31.0802C84.7474 35.6432 82.7156 39.2492 79.0659 42.0042C77.4912 43.2442 73.61 45.6622 70.4679 47.3292C60.2973 52.8492 55.6129 60.7972 56.7299 70.1062ZM63.0124 85.6202C63.0124 85.6192 63.0104 85.6182 63.0065 85.6162C63.0105 85.6192 63.0124 85.6202 63.0124 85.6202ZM79.6145 10.0106C79.612 9.9983 79.6108 9.99601 79.6137 10.0074C79.6139 10.0082 79.6142 10.0093 79.6145 10.0106Z" stroke="#3A3A3A" stroke-width="1.5"/>
<path d="M101.375 39.0042V38.9962V38.9882L101.465 36.0362L102.884 35.7212L104.043 38.0202C105.084 39.9782 105.97 43.3032 106.52 46.6992C107.072 50.1042 107.308 53.7102 106.983 56.2572C106.425 61.7002 103.12 68.0492 98.9537 71.5902C98.1265 72.3402 96.5259 73.3862 94.6722 74.4852C92.7904 75.6012 90.5864 76.8082 88.5195 77.8742L88.5109 77.8792L88.5022 77.8832C84.2375 79.9462 81.633 81.6632 79.7724 83.9652C77.909 86.2702 76.7339 89.2322 75.4878 93.9162L75.4853 93.9252L75.4826 93.9342C75.0331 95.4652 74.5799 96.8692 74.1902 97.8982C73.9967 98.4092 73.8106 98.8492 73.641 99.1712C73.5581 99.3292 73.4632 99.4892 73.3563 99.6202C73.3032 99.6852 73.2275 99.7672 73.128 99.8392C73.0334 99.9072 72.8564 100.009 72.617 100.009C72.0865 100.009 71.7621 99.6262 71.6032 99.3812C71.4242 99.1062 71.2838 98.7492 71.167 98.3632C70.93 97.5792 70.7339 96.4782 70.5757 95.1492C70.2579 92.4792 70.0786 88.7572 70.0786 84.4972V84.4912C70.1235 78.0992 70.8583 73.6012 73.0146 70.2512C75.1862 66.8782 78.7124 64.7992 84.0002 63.0272C88.3712 61.5232 92.7036 57.8852 95.9625 53.3902C99.2222 48.8942 101.332 43.6462 101.375 39.0042Z" fill="#3A3A3A" stroke="#3A3A3A" stroke-width="1.5"/>
<path d="M144.433 136.829C144.478 137.437 144.522 137.962 144.564 138.389C144.689 138.323 144.823 138.252 144.965 138.177C145.877 137.689 147.091 137.006 148.373 136.231L148.382 136.225C150.975 134.696 155.618 132.821 158.634 131.972L158.641 131.97L158.649 131.968C168.82 129.273 177.918 130.906 184.611 136.1C191.297 141.289 195.437 149.919 195.939 160.937C196.76 178.808 189.269 194.613 174.453 206.15C166.658 212.229 152.599 219.386 142.21 222.555L142.207 222.556L134.545 224.928L131.789 229.839L131.787 229.844C125.585 240.76 115.106 249.409 103.161 253.455C99.9822 254.532 98.0171 255.112 93.9144 255.408C89.8789 255.7 83.7307 255.722 72.1698 255.722H72.1659L72.0192 255.721C60.2473 255.676 54.1717 255.652 50.2497 255.338C46.2287 255.016 44.4092 254.382 41.1503 253.168C32.3252 249.882 26.4643 245.914 20.0954 238.685C13.9096 231.739 10.09 224.782 6.9241 214.61C2.31539 199.97 1.69225 193.562 1.24519 156.844C1.02189 140.116 0.909281 131.5 1.08931 126.612C1.17939 124.167 1.34401 122.595 1.62253 121.381C1.90645 120.144 2.30137 119.315 2.78008 118.374C4.02217 115.815 6.12572 113.526 8.48302 112.307C10.3225 111.306 11.8768 110.852 20.0657 110.611C28.2997 110.368 43.4311 110.345 72.6168 110.345C74.663 110.345 76.6441 110.345 78.5623 110.345C107.795 110.342 122.425 110.341 130.196 110.994C134.324 111.342 136.687 111.882 138.302 112.814C139.718 113.632 140.5 114.734 141.338 115.915C141.47 116.101 141.603 116.288 141.741 116.477C143.566 118.989 143.9 121.356 144.078 129.771C144.167 132.526 144.3 135.024 144.433 136.829ZM127.085 205.489L127.086 205.485C130.092 193.627 130.632 185.349 130.632 154.063V124.247H72.6168H14.6012V152.31C14.6012 184.337 15.411 195.092 18.6768 206.658L18.6775 206.66C21.3356 216.169 24.8593 223.474 29.4888 228.971C34.1075 234.454 39.866 238.183 47.0785 240.483C51.551 241.903 55.0495 242.189 72.438 242.189C79.5865 242.189 84.9758 242.097 88.9735 241.891C92.9943 241.683 95.531 241.363 97.0206 240.936L97.0297 240.934C111.61 236.904 122.407 224.344 127.085 205.489ZM180.794 152.904V152.903C180.293 151.784 179.53 150.533 178.703 149.425C177.867 148.305 177.021 147.404 176.379 146.937C175.753 146.481 174.772 146.048 173.524 145.686C172.291 145.329 170.86 145.059 169.381 144.896C166.39 144.569 163.358 144.698 161.453 145.325L161.451 145.326C157.922 146.48 151.762 149.921 147.708 153.013L144.343 155.576L144.257 168.271C144.257 168.273 144.257 168.274 144.257 168.276C144.257 182.422 143.093 196.249 141.103 204.934C140.796 206.339 140.579 207.618 140.472 208.533C140.463 208.613 140.454 208.69 140.447 208.762C140.542 208.734 140.644 208.702 140.753 208.667C141.43 208.448 142.288 208.126 143.283 207.721C145.271 206.911 147.758 205.787 150.345 204.541C155.537 202.041 161.039 199.095 163.697 197.252C166.423 195.332 169.648 192.238 172.544 188.884C175.444 185.527 177.95 181.984 179.282 179.192C180.432 176.727 181.111 175.006 181.546 173.048C181.984 171.077 182.183 168.823 182.317 165.281V165.27C182.496 161.622 182.513 159.443 182.291 157.72C182.074 156.035 181.624 154.752 180.794 152.904Z" fill="#3A3A3A" stroke="#3A3A3A" stroke-width="2"/>
<path d="M294.96 28.7599C294.96 68.8669 286.64 120.92 270 184.92C259.333 228.44 251.867 250.2 247.6 250.2C244.613 250.2 241.093 247.853 237.04 243.16C233.2 238.467 231.28 234.84 231.28 232.28C231.28 229.72 234.373 216.493 240.56 192.6C246.747 168.707 252.933 139.373 259.12 104.6C265.307 69.6129 268.4 38.1469 268.4 10.1999C268.4 7.21318 268.827 5.07989 269.68 3.79989C270.533 2.51989 272.347 1.87988 275.12 1.87988C277.893 1.87988 281.84 4.97319 286.96 11.1599C292.293 17.1329 294.96 22.9999 294.96 28.7599ZM395.478 91.4799C405.078 91.4799 413.931 96.3869 422.038 106.2C430.144 115.8 434.198 124.547 434.198 132.44C434.198 140.12 431.531 148.013 426.198 156.12C428.758 159.32 430.038 162.093 430.038 164.44C430.038 170.413 428.651 180.653 425.878 195.16C423.318 209.667 421.718 219.16 421.078 223.64C420.651 228.12 420.224 231.747 419.798 234.52C419.371 237.08 418.838 239.64 418.198 242.2C417.344 247.533 415.424 250.2 412.438 250.2C408.598 250.2 405.398 246.893 402.838 240.28C400.491 233.453 399.104 224.707 398.678 214.04C379.691 238.147 362.091 250.2 345.878 250.2C336.064 250.2 326.358 246.04 316.758 237.72C307.371 229.187 302.678 220.44 302.678 211.48C302.678 198.68 307.371 182.893 316.758 164.12C326.144 145.133 338.304 128.28 353.238 113.56C368.171 98.8399 382.251 91.4799 395.478 91.4799ZM410.198 147.8C410.198 127.96 406.251 118.04 398.358 118.04C390.038 118.04 380.331 124.013 369.238 135.96C358.144 147.693 348.758 161.027 341.078 175.96C333.398 190.893 329.558 202.733 329.558 211.48C329.558 215.107 331.051 218.093 334.038 220.44C337.024 222.573 340.544 223.64 344.598 223.64C354.624 223.64 365.931 216.92 378.518 203.48C391.104 189.827 399.851 173.293 404.758 153.88C405.398 150.68 407.211 148.76 410.198 148.12V147.8ZM496.198 218.2C496.198 222.253 498.544 224.28 503.238 224.28C511.344 224.28 521.158 222.04 532.677 217.56C544.411 212.867 550.918 210.52 552.198 210.52C556.038 210.52 557.958 212.547 557.958 216.6C557.958 222.787 551.558 229.933 538.758 238.04C526.171 246.147 514.651 250.2 504.198 250.2C493.958 250.2 485.424 247.427 478.598 241.88C471.771 236.12 468.358 230.253 468.358 224.28C468.358 218.307 469.638 210.733 472.198 201.56C474.758 192.173 478.384 179.907 483.078 164.76C487.984 149.4 491.824 136.707 494.598 126.68C484.571 129.027 477.851 130.2 474.438 130.2C471.024 130.2 467.611 128.493 464.198 125.08C460.998 121.453 459.398 118.04 459.398 114.84C459.398 109.72 473.264 104.813 500.998 100.12C504.838 82.4129 506.758 66.7329 506.758 53.0799C506.758 46.6799 508.891 43.4799 513.158 43.4799C516.784 43.4799 521.264 45.8269 526.598 50.5199C531.931 54.9999 534.598 60.1199 534.598 65.8799C534.598 71.6399 532.784 81.7729 529.158 96.2799C541.318 95.2129 551.024 94.6799 558.278 94.6799C571.078 94.6799 577.478 97.4529 577.478 103C577.478 106.2 573.958 108.867 566.918 111C560.091 113.133 545.584 116.44 523.398 120.92C518.918 137.773 513.264 157.08 506.438 178.84C499.611 200.387 496.198 213.507 496.198 218.2ZM619.948 218.2C619.948 222.253 622.294 224.28 626.988 224.28C635.094 224.28 644.908 222.04 656.427 217.56C668.161 212.867 674.668 210.52 675.948 210.52C679.788 210.52 681.708 212.547 681.708 216.6C681.708 222.787 675.308 229.933 662.508 238.04C649.921 246.147 638.401 250.2 627.948 250.2C617.708 250.2 609.174 247.427 602.348 241.88C595.521 236.12 592.108 230.253 592.108 224.28C592.108 218.307 593.388 210.733 595.948 201.56C598.508 192.173 602.134 179.907 606.828 164.76C611.734 149.4 615.574 136.707 618.348 126.68C608.321 129.027 601.601 130.2 598.188 130.2C594.774 130.2 591.361 128.493 587.948 125.08C584.748 121.453 583.148 118.04 583.148 114.84C583.148 109.72 597.014 104.813 624.748 100.12C628.588 82.4129 630.508 66.7329 630.508 53.0799C630.508 46.6799 632.641 43.4799 636.908 43.4799C640.534 43.4799 645.014 45.8269 650.348 50.5199C655.681 54.9999 658.348 60.1199 658.348 65.8799C658.348 71.6399 656.534 81.7729 652.908 96.2799C665.068 95.2129 674.774 94.6799 682.028 94.6799C694.828 94.6799 701.228 97.4529 701.228 103C701.228 106.2 697.708 108.867 690.668 111C683.841 113.133 669.334 116.44 647.148 120.92C642.668 137.773 637.014 157.08 630.188 178.84C623.361 200.387 619.948 213.507 619.948 218.2ZM835.538 144.6C835.538 155.907 829.351 165.187 816.978 172.44C804.818 179.48 790.951 183 775.378 183C760.018 183 746.044 181.293 733.458 177.88C730.471 187.267 728.978 195.693 728.978 203.16C728.978 210.413 731.218 216.067 735.698 220.12C740.391 224.173 747.964 226.2 758.418 226.2C769.084 226.2 779.964 224.387 791.058 220.76C802.364 216.92 808.551 215 809.618 215C815.164 215 817.938 217.133 817.938 221.4C817.938 227.16 811.431 233.453 798.418 240.28C785.404 246.893 772.711 250.2 760.338 250.2C743.698 250.2 730.151 245.293 719.698 235.48C709.244 225.453 704.018 212.867 704.018 197.72C704.018 182.573 708.071 166.787 716.178 150.36C724.284 133.72 734.738 119.747 747.538 108.44C760.338 97.1329 773.031 91.4799 785.618 91.4799C798.204 91.4799 809.618 97.4529 819.858 109.4C830.311 121.347 835.538 133.08 835.538 144.6ZM787.218 116.76C779.324 116.76 771.111 120.92 762.578 129.24C754.044 137.347 746.791 147.48 740.818 159.64C749.351 161.56 759.058 162.52 769.938 162.52C780.818 162.52 790.311 160.813 798.418 157.4C806.524 153.773 810.578 149.08 810.578 143.32C810.578 137.56 807.911 131.693 802.578 125.72C797.458 119.747 792.338 116.76 787.218 116.76Z" fill="#3A3A3A"/>
<mask id="mask0_47_21" style="mask-type:luminance" maskUnits="userSpaceOnUse" x="230" y="0" width="607" height="252">
<path d="M837 0H230V252H837V0Z" fill="white"/>
<path d="M294.96 28.7599C294.96 68.8669 286.64 120.92 270 184.92C259.333 228.44 251.867 250.2 247.6 250.2C244.613 250.2 241.093 247.853 237.04 243.16C233.2 238.467 231.28 234.84 231.28 232.28C231.28 229.72 234.373 216.493 240.56 192.6C246.747 168.707 252.933 139.373 259.12 104.6C265.307 69.6129 268.4 38.1469 268.4 10.1999C268.4 7.21318 268.827 5.07989 269.68 3.79989C270.533 2.51989 272.347 1.87988 275.12 1.87988C277.893 1.87988 281.84 4.97319 286.96 11.1599C292.293 17.1329 294.96 22.9999 294.96 28.7599ZM395.478 91.4799C405.078 91.4799 413.931 96.3869 422.038 106.2C430.144 115.8 434.198 124.547 434.198 132.44C434.198 140.12 431.531 148.013 426.198 156.12C428.758 159.32 430.038 162.093 430.038 164.44C430.038 170.413 428.651 180.653 425.878 195.16C423.318 209.667 421.718 219.16 421.078 223.64C420.651 228.12 420.224 231.747 419.798 234.52C419.371 237.08 418.838 239.64 418.198 242.2C417.344 247.533 415.424 250.2 412.438 250.2C408.598 250.2 405.398 246.893 402.838 240.28C400.491 233.453 399.104 224.707 398.678 214.04C379.691 238.147 362.091 250.2 345.878 250.2C336.064 250.2 326.358 246.04 316.758 237.72C307.371 229.187 302.678 220.44 302.678 211.48C302.678 198.68 307.371 182.893 316.758 164.12C326.144 145.133 338.304 128.28 353.238 113.56C368.171 98.8399 382.251 91.4799 395.478 91.4799ZM410.198 147.8C410.198 127.96 406.251 118.04 398.358 118.04C390.038 118.04 380.331 124.013 369.238 135.96C358.144 147.693 348.758 161.027 341.078 175.96C333.398 190.893 329.558 202.733 329.558 211.48C329.558 215.107 331.051 218.093 334.038 220.44C337.024 222.573 340.544 223.64 344.598 223.64C354.624 223.64 365.931 216.92 378.518 203.48C391.104 189.827 399.851 173.293 404.758 153.88C405.398 150.68 407.211 148.76 410.198 148.12V147.8ZM496.198 218.2C496.198 222.253 498.544 224.28 503.238 224.28C511.344 224.28 521.158 222.04 532.677 217.56C544.411 212.867 550.918 210.52 552.198 210.52C556.038 210.52 557.958 212.547 557.958 216.6C557.958 222.787 551.558 229.933 538.758 238.04C526.171 246.147 514.651 250.2 504.198 250.2C493.958 250.2 485.424 247.427 478.598 241.88C471.771 236.12 468.358 230.253 468.358 224.28C468.358 218.307 469.638 210.733 472.198 201.56C474.758 192.173 478.384 179.907 483.078 164.76C487.984 149.4 491.824 136.707 494.598 126.68C484.571 129.027 477.851 130.2 474.438 130.2C471.024 130.2 467.611 128.493 464.198 125.08C460.998 121.453 459.398 118.04 459.398 114.84C459.398 109.72 473.264 104.813 500.998 100.12C504.838 82.4129 506.758 66.7329 506.758 53.0799C506.758 46.6799 508.891 43.4799 513.158 43.4799C516.784 43.4799 521.264 45.8269 526.598 50.5199C531.931 54.9999 534.598 60.1199 534.598 65.8799C534.598 71.6399 532.784 81.7729 529.158 96.2799C541.318 95.2129 551.024 94.6799 558.278 94.6799C571.078 94.6799 577.478 97.4529 577.478 103C577.478 106.2 573.958 108.867 566.918 111C560.091 113.133 545.584 116.44 523.398 120.92C518.918 137.773 513.264 157.08 506.438 178.84C499.611 200.387 496.198 213.507 496.198 218.2ZM619.948 218.2C619.948 222.253 622.294 224.28 626.988 224.28C635.094 224.28 644.908 222.04 656.427 217.56C668.161 212.867 674.668 210.52 675.948 210.52C679.788 210.52 681.708 212.547 681.708 216.6C681.708 222.787 675.308 229.933 662.508 238.04C649.921 246.147 638.401 250.2 627.948 250.2C617.708 250.2 609.174 247.427 602.348 241.88C595.521 236.12 592.108 230.253 592.108 224.28C592.108 218.307 593.388 210.733 595.948 201.56C598.508 192.173 602.134 179.907 606.828 164.76C611.734 149.4 615.574 136.707 618.348 126.68C608.321 129.027 601.601 130.2 598.188 130.2C594.774 130.2 591.361 128.493 587.948 125.08C584.748 121.453 583.148 118.04 583.148 114.84C583.148 109.72 597.014 104.813 624.748 100.12C628.588 82.4129 630.508 66.7329 630.508 53.0799C630.508 46.6799 632.641 43.4799 636.908 43.4799C640.534 43.4799 645.014 45.8269 650.348 50.5199C655.681 54.9999 658.348 60.1199 658.348 65.8799C658.348 71.6399 656.534 81.7729 652.908 96.2799C665.068 95.2129 674.774 94.6799 682.028 94.6799C694.828 94.6799 701.228 97.4529 701.228 103C701.228 106.2 697.708 108.867 690.668 111C683.841 113.133 669.334 116.44 647.148 120.92C642.668 137.773 637.014 157.08 630.188 178.84C623.361 200.387 619.948 213.507 619.948 218.2ZM835.538 144.6C835.538 155.907 829.351 165.187 816.978 172.44C804.818 179.48 790.951 183 775.378 183C760.018 183 746.044 181.293 733.458 177.88C730.471 187.267 728.978 195.693 728.978 203.16C728.978 210.413 731.218 216.067 735.698 220.12C740.391 224.173 747.964 226.2 758.418 226.2C769.084 226.2 779.964 224.387 791.058 220.76C802.364 216.92 808.551 215 809.618 215C815.164 215 817.938 217.133 817.938 221.4C817.938 227.16 811.431 233.453 798.418 240.28C785.404 246.893 772.711 250.2 760.338 250.2C743.698 250.2 730.151 245.293 719.698 235.48C709.244 225.453 704.018 212.867 704.018 197.72C704.018 182.573 708.071 166.787 716.178 150.36C724.284 133.72 734.738 119.747 747.538 108.44C760.338 97.1329 773.031 91.4799 785.618 91.4799C798.204 91.4799 809.618 97.4529 819.858 109.4C830.311 121.347 835.538 133.08 835.538 144.6ZM787.218 116.76C779.324 116.76 771.111 120.92 762.578 129.24C754.044 137.347 746.791 147.48 740.818 159.64C749.351 161.56 759.058 162.52 769.938 162.52C780.818 162.52 790.311 160.813 798.418 157.4C806.524 153.773 810.578 149.08 810.578 143.32C810.578 137.56 807.911 131.693 802.578 125.72C797.458 119.747 792.338 116.76 787.218 116.76Z" fill="black"/>
</mask>
<g mask="url(#mask0_47_21)">
<path d="M270 184.92L269.032 184.668L269.029 184.682L270 184.92ZM237.04 243.16L236.266 243.793L236.274 243.804L236.283 243.814L237.04 243.16ZM286.96 11.1599L286.19 11.7975L286.202 11.8119L286.214 11.8259L286.96 11.1599ZM293.96 28.7599C293.96 68.7449 285.663 120.705 269.032 184.668L270.968 185.172C287.617 121.135 295.96 68.9879 295.96 28.7599H293.96ZM269.029 184.682C263.697 206.435 259.172 222.719 255.454 233.555C253.593 238.98 251.947 242.998 250.52 245.645C249.804 246.973 249.168 247.908 248.618 248.498C248.042 249.117 247.709 249.2 247.6 249.2V251.2C248.558 251.2 249.391 250.603 250.082 249.862C250.799 249.092 251.529 247.987 252.28 246.595C253.786 243.802 255.474 239.66 257.346 234.205C261.094 223.281 265.636 206.925 270.971 185.158L269.029 184.682ZM247.6 249.2C246.37 249.2 244.936 248.716 243.275 247.608C241.616 246.502 239.789 244.813 237.797 242.506L236.283 243.814C238.344 246.2 240.304 248.031 242.165 249.272C244.024 250.511 245.843 251.2 247.6 251.2V249.2ZM237.814 242.527C235.918 240.21 234.522 238.186 233.604 236.452C232.679 234.705 232.28 233.327 232.28 232.28H230.28C230.28 233.793 230.841 235.508 231.836 237.388C232.838 239.28 234.322 241.417 236.266 243.793L237.814 242.527ZM232.28 232.28C232.28 231.754 232.451 230.545 232.841 228.552C233.225 226.596 233.802 223.969 234.574 220.668C236.118 214.066 238.435 204.795 241.528 192.851L239.592 192.349C236.498 204.299 234.176 213.587 232.626 220.212C231.852 223.524 231.269 226.177 230.879 228.168C230.496 230.121 230.28 231.526 230.28 232.28H232.28ZM241.528 192.851C247.723 168.924 253.915 139.564 260.105 104.775L258.135 104.425C251.952 139.183 245.77 168.489 239.592 192.349L241.528 192.851ZM260.105 104.775C266.299 69.7459 269.4 38.2179 269.4 10.1999H267.4C267.4 38.0749 264.314 69.4809 258.135 104.425L260.105 104.775ZM269.4 10.1999C269.4 7.25478 269.831 5.37638 270.512 4.35458L268.848 3.24519C267.822 4.78339 267.4 7.17158 267.4 10.1999H269.4ZM270.512 4.35458C271.071 3.51628 272.419 2.87988 275.12 2.87988V0.879883C272.274 0.879883 269.996 1.52349 268.848 3.24519L270.512 4.35458ZM275.12 2.87988C276.164 2.87988 277.62 3.47988 279.543 4.98698C281.437 6.47118 283.652 8.73059 286.19 11.7975L287.73 10.5223C285.148 7.40249 282.83 5.02189 280.777 3.41279C278.753 1.82659 276.85 0.879883 275.12 0.879883V2.87988ZM286.214 11.8259C291.448 17.6879 293.96 23.3269 293.96 28.7599H295.96C295.96 22.6729 293.139 16.5789 287.706 10.4939L286.214 11.8259ZM422.038 106.2L421.267 106.837L421.273 106.845L422.038 106.2ZM426.198 156.12L425.362 155.57L424.963 156.177L425.417 156.745L426.198 156.12ZM425.878 195.16L424.895 194.972L424.894 194.979L424.893 194.986L425.878 195.16ZM421.078 223.64L420.088 223.499L420.084 223.522L420.082 223.545L421.078 223.64ZM419.798 234.52L420.784 234.684L420.786 234.672L419.798 234.52ZM418.198 242.2L417.227 241.957L417.217 241.999L417.21 242.042L418.198 242.2ZM402.838 240.28L401.892 240.605L401.898 240.623L401.905 240.641L402.838 240.28ZM398.678 214.04L399.677 214L399.568 211.293L397.892 213.421L398.678 214.04ZM316.758 237.72L316.085 238.46L316.094 238.468L316.103 238.476L316.758 237.72ZM316.758 164.12L317.652 164.567L317.654 164.563L316.758 164.12ZM369.238 135.96L369.964 136.647L369.97 136.64L369.238 135.96ZM334.038 220.44L333.42 221.226L333.438 221.24L333.456 221.254L334.038 220.44ZM378.518 203.48L379.247 204.164L379.253 204.158L378.518 203.48ZM404.758 153.88L405.727 154.125L405.733 154.101L405.738 154.076L404.758 153.88ZM410.198 148.12L410.407 149.098L411.198 148.928V148.12H410.198ZM395.478 92.4799C404.689 92.4799 413.284 97.1729 421.267 106.837L422.808 105.563C414.578 95.5999 405.466 90.4799 395.478 90.4799V92.4799ZM421.273 106.845C429.313 116.365 433.198 124.888 433.198 132.44H435.198C435.198 124.206 430.976 115.235 422.802 105.555L421.273 106.845ZM433.198 132.44C433.198 139.879 430.616 147.584 425.362 155.57L427.033 156.67C432.445 148.443 435.198 140.361 435.198 132.44H433.198ZM425.417 156.745C427.93 159.886 429.038 162.436 429.038 164.44H431.038C431.038 161.75 429.585 158.754 426.978 155.495L425.417 156.745ZM429.038 164.44C429.038 170.308 427.669 180.463 424.895 194.972L426.86 195.348C429.633 180.843 431.038 170.519 431.038 164.44H429.038ZM424.893 194.986C422.333 209.489 420.73 218.999 420.088 223.499L422.067 223.781C422.705 219.321 424.302 209.844 426.862 195.334L424.893 194.986ZM420.082 223.545C419.656 228.016 419.232 231.621 418.809 234.368L420.786 234.672C421.217 231.872 421.645 228.224 422.073 223.735L420.082 223.545ZM418.811 234.356C418.389 236.889 417.861 239.423 417.227 241.957L419.168 242.443C419.814 239.857 420.353 237.271 420.784 234.684L418.811 234.356ZM417.21 242.042C416.794 244.642 416.134 246.465 415.306 247.616C414.512 248.718 413.573 249.2 412.438 249.2V251.2C414.288 251.2 415.803 250.348 416.929 248.784C418.021 247.268 418.748 245.091 419.185 242.358L417.21 242.042ZM412.438 249.2C409.286 249.2 406.315 246.493 403.77 239.919L401.905 240.641C404.48 247.294 407.909 251.2 412.438 251.2V249.2ZM403.783 239.955C401.479 233.253 400.101 224.611 399.677 214L397.678 214.08C398.107 224.802 399.502 233.654 401.892 240.605L403.783 239.955ZM397.892 213.421C378.938 237.486 361.599 249.2 345.878 249.2V251.2C362.583 251.2 380.443 238.807 399.463 214.659L397.892 213.421ZM345.878 249.2C336.368 249.2 326.885 245.174 317.412 236.964L316.103 238.476C325.83 246.906 335.76 251.2 345.878 251.2V249.2ZM317.43 236.98C308.163 228.555 303.678 220.057 303.678 211.48H301.678C301.678 220.823 306.579 229.818 316.085 238.46L317.43 236.98ZM303.678 211.48C303.678 198.904 308.295 183.28 317.652 164.567L315.863 163.673C306.446 182.507 301.678 198.456 301.678 211.48H303.678ZM317.654 164.563C326.992 145.675 339.086 128.913 353.94 114.272L352.536 112.848C337.522 127.647 325.297 144.591 315.861 163.677L317.654 164.563ZM353.94 114.272C368.791 99.6329 382.632 92.4799 395.478 92.4799V90.4799C381.87 90.4799 367.55 98.0469 352.536 112.848L353.94 114.272ZM411.198 147.8C411.198 137.843 410.211 130.25 408.167 125.11C407.141 122.532 405.826 120.513 404.18 119.133C402.515 117.739 400.56 117.04 398.358 117.04V119.04C400.102 119.04 401.6 119.581 402.895 120.667C404.209 121.767 405.361 123.468 406.308 125.85C408.21 130.63 409.198 137.917 409.198 147.8H411.198ZM398.358 117.04C389.589 117.04 379.626 123.302 368.505 135.28L369.97 136.64C381.035 124.724 390.486 119.04 398.358 119.04V117.04ZM368.511 135.273C357.35 147.078 347.91 160.489 340.188 175.503L341.967 176.417C349.605 161.564 358.938 148.309 369.964 136.647L368.511 135.273ZM340.188 175.503C332.491 190.47 328.558 202.486 328.558 211.48H330.558C330.558 202.98 334.304 191.317 341.967 176.417L340.188 175.503ZM328.558 211.48C328.558 215.43 330.205 218.7 333.42 221.226L334.655 219.654C331.897 217.486 330.558 214.783 330.558 211.48H328.558ZM333.456 221.254C336.63 223.521 340.359 224.64 344.598 224.64V222.64C340.73 222.64 337.418 221.626 334.619 219.626L333.456 221.254ZM344.598 224.64C355.058 224.64 366.616 217.651 379.247 204.164L377.788 202.796C365.246 216.189 354.19 222.64 344.598 222.64V224.64ZM379.253 204.158C391.961 190.372 400.783 173.687 405.727 154.125L403.788 153.635C398.919 172.9 390.247 189.281 377.782 202.802L379.253 204.158ZM405.738 154.076C406.03 152.617 406.574 151.521 407.325 150.727C408.071 149.936 409.08 149.382 410.407 149.098L409.988 147.142C408.329 147.498 406.937 148.224 405.87 149.353C404.808 150.479 404.125 151.943 403.777 153.684L405.738 154.076ZM411.198 148.12V147.8H409.198V148.12H411.198ZM532.677 217.56L533.04 218.492L533.049 218.488L532.677 217.56ZM538.758 238.04L538.222 237.195L538.216 237.199L538.758 238.04ZM478.598 241.88L477.953 242.644L477.96 242.65L477.967 242.656L478.598 241.88ZM472.198 201.56L473.161 201.829L473.162 201.823L472.198 201.56ZM483.078 164.76L482.125 164.456L482.122 164.464L483.078 164.76ZM494.598 126.68L495.561 126.947L496.011 125.322L494.37 125.706L494.598 126.68ZM464.198 125.08L463.448 125.742L463.468 125.765L463.49 125.787L464.198 125.08ZM500.998 100.12L501.164 101.106L501.831 100.993L501.975 100.332L500.998 100.12ZM526.598 50.5199L525.937 51.2709L525.946 51.2779L525.954 51.2859L526.598 50.5199ZM529.158 96.2799L528.187 96.0369L527.847 97.3989L529.245 97.2759L529.158 96.2799ZM566.918 111L566.627 110.043L566.619 110.046L566.918 111ZM523.398 120.92L523.2 119.94L522.591 120.063L522.431 120.663L523.398 120.92ZM506.438 178.84L507.391 179.142L507.392 179.139L506.438 178.84ZM495.198 218.2C495.198 220.422 495.848 222.259 497.304 223.517C498.732 224.75 500.77 225.28 503.238 225.28V223.28C501.012 223.28 499.53 222.796 498.611 222.003C497.721 221.234 497.198 220.031 497.198 218.2H495.198ZM503.238 225.28C511.516 225.28 521.459 222.996 533.04 218.492L532.315 216.628C520.856 221.084 511.173 223.28 503.238 223.28V225.28ZM533.049 218.488C538.912 216.143 543.46 214.388 546.697 213.221C548.317 212.637 549.597 212.203 550.546 211.917C551.021 211.774 551.402 211.671 551.694 211.605C552.004 211.535 552.155 211.52 552.198 211.52V209.52C551.92 209.52 551.587 209.579 551.251 209.655C550.897 209.735 550.468 209.852 549.969 210.003C548.971 210.303 547.652 210.75 546.018 211.339C542.749 212.518 538.176 214.283 532.306 216.632L533.049 218.488ZM552.198 211.52C553.949 211.52 555.083 211.98 555.792 212.728C556.51 213.486 556.958 214.714 556.958 216.6H558.958C558.958 214.432 558.445 212.621 557.243 211.352C556.032 210.074 554.286 209.52 552.198 209.52V211.52ZM556.958 216.6C556.958 219.342 555.535 222.446 552.413 225.933C549.299 229.41 544.584 233.166 538.222 237.195L539.293 238.885C545.731 234.807 550.616 230.937 553.902 227.267C557.18 223.607 558.958 220.044 558.958 216.6H556.958ZM538.216 237.199C525.724 245.245 514.393 249.2 504.198 249.2V251.2C514.909 251.2 526.617 247.049 539.299 238.881L538.216 237.199ZM504.198 249.2C494.148 249.2 485.848 246.483 479.228 241.104L477.967 242.656C485 248.371 493.767 251.2 504.198 251.2V249.2ZM479.242 241.116C472.527 235.45 469.358 229.837 469.358 224.28H467.358C467.358 230.67 471.014 236.79 477.953 242.644L479.242 241.116ZM469.358 224.28C469.358 218.435 470.612 210.96 473.161 201.829L471.234 201.291C468.663 210.507 467.358 218.178 467.358 224.28H469.358ZM473.162 201.823C475.718 192.452 479.341 180.198 484.033 165.056L482.122 164.464C477.427 179.616 473.797 191.895 471.233 201.297L473.162 201.823ZM484.03 165.064C488.939 149.698 492.783 136.991 495.561 126.947L493.634 126.413C490.865 136.423 487.03 149.102 482.125 164.456L484.03 165.064ZM494.37 125.706C484.323 128.058 477.716 129.2 474.438 129.2V131.2C477.986 131.2 484.819 129.996 494.825 127.654L494.37 125.706ZM474.438 129.2C471.383 129.2 468.209 127.677 464.905 124.373L463.49 125.787C467.013 129.309 470.665 131.2 474.438 131.2V129.2ZM464.947 124.418C461.829 120.884 460.398 117.698 460.398 114.84H458.398C458.398 118.382 460.166 122.023 463.448 125.742L464.947 124.418ZM460.398 114.84C460.398 114.048 460.936 113.041 462.583 111.85C464.203 110.679 466.7 109.477 470.131 108.263C476.981 105.839 487.313 103.45 501.164 101.106L500.831 99.1339C486.949 101.483 476.48 103.895 469.464 106.377C465.962 107.616 463.258 108.894 461.412 110.23C459.592 111.545 458.398 113.072 458.398 114.84H460.398ZM501.975 100.332C505.825 82.5769 507.758 66.8229 507.758 53.0799H505.758C505.758 66.6429 503.85 82.2499 500.02 99.9079L501.975 100.332ZM507.758 53.0799C507.758 49.9599 508.283 47.7939 509.19 46.4349C510.048 45.1469 511.315 44.4799 513.158 44.4799V42.4799C510.733 42.4799 508.8 43.4129 507.525 45.3249C506.298 47.1659 505.758 49.7999 505.758 53.0799H507.758ZM513.158 44.4799C516.396 44.4799 520.635 46.6049 525.937 51.2709L527.258 49.7689C521.893 45.0479 517.172 42.4799 513.158 42.4799V44.4799ZM525.954 51.2859C531.113 55.6189 533.598 60.4769 533.598 65.8799H535.598C535.598 59.7629 532.748 54.3809 527.241 49.7539L525.954 51.2859ZM533.598 65.8799C533.598 71.5009 531.816 81.5229 528.187 96.0369L530.128 96.5229C533.752 82.0229 535.598 71.7789 535.598 65.8799H533.598ZM529.245 97.2759C541.393 96.2109 551.066 95.6799 558.278 95.6799V93.6799C550.982 93.6799 541.242 94.2159 529.07 95.2839L529.245 97.2759ZM558.278 95.6799C564.636 95.6799 569.27 96.3729 572.28 97.6779C573.774 98.3249 574.817 99.1009 575.485 99.9699C576.142 100.825 576.478 101.82 576.478 103H578.478C578.478 101.406 578.013 99.9749 577.07 98.7499C576.138 97.5389 574.781 96.5819 573.075 95.8419C569.685 94.3729 564.719 93.6799 558.278 93.6799V95.6799ZM576.478 103C576.478 104.179 575.845 105.382 574.234 106.603C572.61 107.833 570.099 108.991 566.627 110.043L567.208 111.957C570.776 110.876 573.545 109.634 575.441 108.197C577.35 106.752 578.478 105.021 578.478 103H576.478ZM566.619 110.046C559.851 112.161 545.397 115.458 523.2 119.94L523.595 121.9C545.772 117.422 560.331 114.106 567.216 111.954L566.619 110.046ZM522.431 120.663C517.956 137.499 512.307 156.791 505.483 178.541L507.392 179.139C514.221 157.369 519.879 138.048 524.364 121.177L522.431 120.663ZM505.484 178.538C502.069 189.319 499.503 198.004 497.79 204.588C496.088 211.13 495.198 215.705 495.198 218.2H497.198C497.198 216.001 498.014 211.67 499.725 205.092C501.426 198.556 503.98 189.908 507.391 179.142L505.484 178.538ZM656.427 217.56L656.79 218.492L656.799 218.488L656.427 217.56ZM662.508 238.04L661.972 237.195L661.966 237.199L662.508 238.04ZM602.348 241.88L601.703 242.644L601.71 242.65L601.717 242.656L602.348 241.88ZM595.948 201.56L596.911 201.829L596.912 201.823L595.948 201.56ZM606.828 164.76L605.875 164.456L605.872 164.464L606.828 164.76ZM618.348 126.68L619.311 126.947L619.761 125.322L618.12 125.706L618.348 126.68ZM587.948 125.08L587.198 125.742L587.218 125.765L587.24 125.787L587.948 125.08ZM624.748 100.12L624.914 101.106L625.581 100.993L625.725 100.332L624.748 100.12ZM650.348 50.5199L649.687 51.2709L649.696 51.2779L649.704 51.2859L650.348 50.5199ZM652.908 96.2799L651.937 96.0369L651.597 97.3989L652.995 97.2759L652.908 96.2799ZM690.668 111L690.377 110.043L690.369 110.046L690.668 111ZM647.148 120.92L646.95 119.94L646.341 120.063L646.181 120.663L647.148 120.92ZM630.188 178.84L631.141 179.142L631.142 179.139L630.188 178.84ZM618.948 218.2C618.948 220.422 619.598 222.259 621.054 223.517C622.482 224.75 624.52 225.28 626.988 225.28V223.28C624.762 223.28 623.28 222.796 622.361 222.003C621.471 221.234 620.948 220.031 620.948 218.2H618.948ZM626.988 225.28C635.266 225.28 645.209 222.996 656.79 218.492L656.065 216.628C644.606 221.084 634.923 223.28 626.988 223.28V225.28ZM656.799 218.488C662.662 216.143 667.21 214.388 670.447 213.221C672.067 212.637 673.347 212.203 674.296 211.917C674.771 211.774 675.152 211.671 675.444 211.605C675.754 211.535 675.905 211.52 675.948 211.52V209.52C675.67 209.52 675.337 209.579 675.001 209.655C674.647 209.735 674.218 209.852 673.719 210.003C672.721 210.303 671.402 210.75 669.768 211.339C666.499 212.518 661.926 214.283 656.056 216.632L656.799 218.488ZM675.948 211.52C677.699 211.52 678.833 211.98 679.542 212.728C680.26 213.486 680.708 214.714 680.708 216.6H682.708C682.708 214.432 682.195 212.621 680.993 211.352C679.782 210.074 678.036 209.52 675.948 209.52V211.52ZM680.708 216.6C680.708 219.342 679.285 222.446 676.163 225.933C673.049 229.41 668.334 233.166 661.972 237.195L663.043 238.885C669.481 234.807 674.366 230.937 677.652 227.267C680.93 223.607 682.708 220.044 682.708 216.6H680.708ZM661.966 237.199C649.474 245.245 638.143 249.2 627.948 249.2V251.2C638.659 251.2 650.367 247.049 663.049 238.881L661.966 237.199ZM627.948 249.2C617.898 249.2 609.598 246.483 602.978 241.104L601.717 242.656C608.75 248.371 617.517 251.2 627.948 251.2V249.2ZM602.992 241.116C596.277 235.45 593.108 229.837 593.108 224.28H591.108C591.108 230.67 594.764 236.79 601.703 242.644L602.992 241.116ZM593.108 224.28C593.108 218.435 594.362 210.96 596.911 201.829L594.984 201.291C592.413 210.507 591.108 218.178 591.108 224.28H593.108ZM596.912 201.823C599.468 192.452 603.091 180.198 607.783 165.056L605.872 164.464C601.177 179.616 597.547 191.895 594.983 201.297L596.912 201.823ZM607.78 165.064C612.689 149.698 616.533 136.991 619.311 126.947L617.384 126.413C614.615 136.423 610.78 149.102 605.875 164.456L607.78 165.064ZM618.12 125.706C608.073 128.058 601.466 129.2 598.188 129.2V131.2C601.736 131.2 608.569 129.996 618.575 127.654L618.12 125.706ZM598.188 129.2C595.133 129.2 591.959 127.677 588.655 124.373L587.24 125.787C590.763 129.309 594.415 131.2 598.188 131.2V129.2ZM588.697 124.418C585.579 120.884 584.148 117.698 584.148 114.84H582.148C582.148 118.382 583.916 122.023 587.198 125.742L588.697 124.418ZM584.148 114.84C584.148 114.048 584.686 113.041 586.333 111.85C587.953 110.679 590.45 109.477 593.881 108.263C600.731 105.839 611.063 103.45 624.914 101.106L624.581 99.1339C610.699 101.483 600.23 103.895 593.214 106.377C589.712 107.616 587.008 108.894 585.162 110.23C583.342 111.545 582.148 113.072 582.148 114.84H584.148ZM625.725 100.332C629.575 82.5769 631.508 66.8229 631.508 53.0799H629.508C629.508 66.6429 627.6 82.2499 623.77 99.9079L625.725 100.332ZM631.508 53.0799C631.508 49.9599 632.033 47.7939 632.94 46.4349C633.798 45.1469 635.065 44.4799 636.908 44.4799V42.4799C634.483 42.4799 632.55 43.4129 631.275 45.3249C630.048 47.1659 629.508 49.7999 629.508 53.0799H631.508ZM636.908 44.4799C640.146 44.4799 644.385 46.6049 649.687 51.2709L651.008 49.7689C645.643 45.0479 640.922 42.4799 636.908 42.4799V44.4799ZM649.704 51.2859C654.863 55.6189 657.348 60.4769 657.348 65.8799H659.348C659.348 59.7629 656.498 54.3809 650.991 49.7539L649.704 51.2859ZM657.348 65.8799C657.348 71.5009 655.566 81.5229 651.937 96.0369L653.878 96.5229C657.502 82.0229 659.348 71.7789 659.348 65.8799H657.348ZM652.995 97.2759C665.143 96.2109 674.816 95.6799 682.028 95.6799V93.6799C674.732 93.6799 664.992 94.2159 652.82 95.2839L652.995 97.2759ZM682.028 95.6799C688.386 95.6799 693.02 96.3729 696.03 97.6779C697.524 98.3249 698.567 99.1009 699.235 99.9699C699.892 100.825 700.228 101.82 700.228 103H702.228C702.228 101.406 701.763 99.9749 700.82 98.7499C699.888 97.5389 698.531 96.5819 696.825 95.8419C693.435 94.3729 688.469 93.6799 682.028 93.6799V95.6799ZM700.228 103C700.228 104.179 699.595 105.382 697.984 106.603C696.36 107.833 693.849 108.991 690.377 110.043L690.958 111.957C694.526 110.876 697.295 109.634 699.191 108.197C701.1 106.752 702.228 105.021 702.228 103H700.228ZM690.369 110.046C683.601 112.161 669.147 115.458 646.95 119.94L647.345 121.9C669.522 117.422 684.081 114.106 690.966 111.954L690.369 110.046ZM646.181 120.663C641.706 137.499 636.057 156.791 629.233 178.541L631.142 179.139C637.971 157.369 643.629 138.048 648.114 121.177L646.181 120.663ZM629.234 178.538C625.819 189.319 623.253 198.004 621.54 204.588C619.838 211.13 618.948 215.705 618.948 218.2H620.948C620.948 216.001 621.764 211.67 623.475 205.092C625.176 198.556 627.73 189.908 631.141 179.142L629.234 178.538ZM816.978 172.44L817.479 173.305L817.483 173.303L816.978 172.44ZM733.458 177.88L733.719 176.915L732.795 176.664L732.505 177.577L733.458 177.88ZM735.698 220.12L735.027 220.862L735.035 220.869L735.044 220.877L735.698 220.12ZM791.058 220.76L791.368 221.711L791.379 221.707L791.058 220.76ZM798.418 240.28L798.871 241.172L798.882 241.166L798.418 240.28ZM719.698 235.48L719.005 236.202L719.013 236.209L719.698 235.48ZM716.178 150.36L717.074 150.803L717.076 150.798L716.178 150.36ZM819.858 109.4L819.098 110.051L819.105 110.059L819.858 109.4ZM762.578 129.24L763.266 129.965L763.276 129.956L762.578 129.24ZM740.818 159.64L739.92 159.199L739.361 160.337L740.598 160.616L740.818 159.64ZM798.418 157.4L798.806 158.322L798.816 158.317L798.826 158.313L798.418 157.4ZM802.578 125.72L801.818 126.371L801.825 126.378L801.832 126.386L802.578 125.72ZM834.538 144.6C834.538 155.454 828.634 164.448 816.472 171.577L817.483 173.303C830.068 165.926 836.538 156.359 836.538 144.6H834.538ZM816.476 171.575C804.485 178.517 790.794 182 775.378 182V184C791.107 184 805.15 180.443 817.479 173.305L816.476 171.575ZM775.378 182C760.091 182 746.207 180.301 733.719 176.915L733.196 178.845C745.881 182.285 759.944 184 775.378 184V182ZM732.505 177.577C729.496 187.032 727.978 195.564 727.978 203.16H729.978C729.978 195.823 731.446 187.501 734.41 178.183L732.505 177.577ZM727.978 203.16C727.978 210.634 730.295 216.581 735.027 220.862L736.368 219.378C732.14 215.552 729.978 210.192 729.978 203.16H727.978ZM735.044 220.877C740.008 225.164 747.876 227.2 758.418 227.2V225.2C748.053 225.2 740.774 223.183 736.351 219.363L735.044 220.877ZM758.418 227.2C769.199 227.2 780.184 225.367 791.368 221.71L790.747 219.81C779.744 223.406 768.969 225.2 758.418 225.2V227.2ZM791.379 221.707C797.03 219.788 801.393 218.351 804.474 217.395C806.015 216.917 807.227 216.561 808.113 216.327C808.557 216.209 808.91 216.124 809.178 216.07C809.311 216.042 809.417 216.024 809.497 216.013C809.536 216.007 809.567 216.004 809.589 216.002C809.611 216 809.62 216 809.618 216V214C809.375 214 809.076 214.049 808.777 214.11C808.458 214.176 808.064 214.271 807.602 214.393C806.675 214.639 805.433 215.003 803.881 215.485C800.775 216.449 796.392 217.892 790.736 219.813L791.379 221.707ZM809.618 216C812.291 216 814.112 216.519 815.248 217.393C816.334 218.228 816.938 219.501 816.938 221.4H818.938C818.938 219.032 818.154 217.105 816.467 215.807C814.83 214.548 812.491 214 809.618 214V216ZM816.938 221.4C816.938 223.888 815.529 226.658 812.362 229.721C809.207 232.773 804.421 236.002 797.953 239.394L798.882 241.166C805.428 237.732 810.402 234.4 813.753 231.159C817.092 227.929 818.938 224.672 818.938 221.4H816.938ZM797.964 239.389C785.066 245.943 772.527 249.2 760.338 249.2V251.2C772.894 251.2 785.742 247.843 798.871 241.171L797.964 239.389ZM760.338 249.2C743.908 249.2 730.62 244.362 720.382 234.751L719.013 236.209C729.681 246.224 743.487 251.2 760.338 251.2V249.2ZM720.39 234.758C710.143 224.93 705.018 212.608 705.018 197.72H703.018C703.018 213.125 708.345 225.977 719.005 236.202L720.39 234.758ZM705.018 197.72C705.018 182.756 709.021 167.12 717.074 150.803L715.281 149.917C707.12 166.453 703.018 182.391 703.018 197.72H705.018ZM717.076 150.798C725.13 134.266 735.506 120.402 748.2 109.189L746.875 107.691C733.969 119.091 723.438 133.174 715.279 149.922L717.076 150.798ZM748.2 109.189C760.883 97.9859 773.35 92.4799 785.618 92.4799V90.4799C772.712 90.4799 759.792 96.2799 746.875 107.691L748.2 109.189ZM785.618 92.4799C797.841 92.4799 808.997 98.2659 819.098 110.051L820.617 108.749C810.238 96.6409 798.567 90.4799 785.618 90.4799V92.4799ZM819.105 110.059C829.459 121.892 834.538 133.4 834.538 144.6H836.538C836.538 132.76 831.163 120.801 820.61 108.741L819.105 110.059ZM787.218 115.76C778.957 115.76 770.506 120.113 761.879 128.524L763.276 129.956C771.716 121.727 779.692 117.76 787.218 117.76V115.76ZM761.889 128.515C753.258 136.715 745.938 146.949 739.92 159.199L741.715 160.081C747.644 148.011 754.831 137.979 763.266 129.965L761.889 128.515ZM740.598 160.616C749.218 162.555 759.001 163.52 769.938 163.52V161.52C759.114 161.52 749.483 160.565 741.037 158.664L740.598 160.616ZM769.938 163.52C780.92 163.52 790.551 161.797 798.806 158.322L798.029 156.478C790.071 159.829 780.715 161.52 769.938 161.52V163.52ZM798.826 158.313C807.073 154.623 811.578 149.669 811.578 143.32H809.578C809.578 148.491 805.975 152.923 798.009 156.487L798.826 158.313ZM811.578 143.32C811.578 137.233 808.757 131.139 803.323 125.054L801.832 126.386C807.065 132.248 809.578 137.887 809.578 143.32H811.578ZM803.337 125.069C798.129 118.994 792.757 115.76 787.218 115.76V117.76C791.918 117.76 796.786 120.5 801.818 126.371L803.337 125.069Z" fill="black" fill-opacity="0.2"/>
</g>
<mask id="mask1_47_21" style="mask-type:luminance" maskUnits="userSpaceOnUse" x="230" y="0" width="607" height="252">
<path d="M837 0H230V252H837V0Z" fill="white"/>
<path d="M294.96 28.7599C294.96 68.8669 286.64 120.92 270 184.92C259.333 228.44 251.867 250.2 247.6 250.2C244.613 250.2 241.093 247.853 237.04 243.16C233.2 238.467 231.28 234.84 231.28 232.28C231.28 229.72 234.373 216.493 240.56 192.6C246.747 168.707 252.933 139.373 259.12 104.6C265.307 69.6129 268.4 38.1469 268.4 10.1999C268.4 7.21318 268.827 5.07989 269.68 3.79989C270.533 2.51989 272.347 1.87988 275.12 1.87988C277.893 1.87988 281.84 4.97319 286.96 11.1599C292.293 17.1329 294.96 22.9999 294.96 28.7599ZM395.478 91.4799C405.078 91.4799 413.931 96.3869 422.038 106.2C430.144 115.8 434.198 124.547 434.198 132.44C434.198 140.12 431.531 148.013 426.198 156.12C428.758 159.32 430.038 162.093 430.038 164.44C430.038 170.413 428.651 180.653 425.878 195.16C423.318 209.667 421.718 219.16 421.078 223.64C420.651 228.12 420.224 231.747 419.798 234.52C419.371 237.08 418.838 239.64 418.198 242.2C417.344 247.533 415.424 250.2 412.438 250.2C408.598 250.2 405.398 246.893 402.838 240.28C400.491 233.453 399.104 224.707 398.678 214.04C379.691 238.147 362.091 250.2 345.878 250.2C336.064 250.2 326.358 246.04 316.758 237.72C307.371 229.187 302.678 220.44 302.678 211.48C302.678 198.68 307.371 182.893 316.758 164.12C326.144 145.133 338.304 128.28 353.238 113.56C368.171 98.8399 382.251 91.4799 395.478 91.4799ZM410.198 147.8C410.198 127.96 406.251 118.04 398.358 118.04C390.038 118.04 380.331 124.013 369.238 135.96C358.144 147.693 348.758 161.027 341.078 175.96C333.398 190.893 329.558 202.733 329.558 211.48C329.558 215.107 331.051 218.093 334.038 220.44C337.024 222.573 340.544 223.64 344.598 223.64C354.624 223.64 365.931 216.92 378.518 203.48C391.104 189.827 399.851 173.293 404.758 153.88C405.398 150.68 407.211 148.76 410.198 148.12V147.8ZM496.198 218.2C496.198 222.253 498.544 224.28 503.238 224.28C511.344 224.28 521.158 222.04 532.677 217.56C544.411 212.867 550.918 210.52 552.198 210.52C556.038 210.52 557.958 212.547 557.958 216.6C557.958 222.787 551.558 229.933 538.758 238.04C526.171 246.147 514.651 250.2 504.198 250.2C493.958 250.2 485.424 247.427 478.598 241.88C471.771 236.12 468.358 230.253 468.358 224.28C468.358 218.307 469.638 210.733 472.198 201.56C474.758 192.173 478.384 179.907 483.078 164.76C487.984 149.4 491.824 136.707 494.598 126.68C484.571 129.027 477.851 130.2 474.438 130.2C471.024 130.2 467.611 128.493 464.198 125.08C460.998 121.453 459.398 118.04 459.398 114.84C459.398 109.72 473.264 104.813 500.998 100.12C504.838 82.4129 506.758 66.7329 506.758 53.0799C506.758 46.6799 508.891 43.4799 513.158 43.4799C516.784 43.4799 521.264 45.8269 526.598 50.5199C531.931 54.9999 534.598 60.1199 534.598 65.8799C534.598 71.6399 532.784 81.7729 529.158 96.2799C541.318 95.2129 551.024 94.6799 558.278 94.6799C571.078 94.6799 577.478 97.4529 577.478 103C577.478 106.2 573.958 108.867 566.918 111C560.091 113.133 545.584 116.44 523.398 120.92C518.918 137.773 513.264 157.08 506.438 178.84C499.611 200.387 496.198 213.507 496.198 218.2ZM619.948 218.2C619.948 222.253 622.294 224.28 626.988 224.28C635.094 224.28 644.908 222.04 656.427 217.56C668.161 212.867 674.668 210.52 675.948 210.52C679.788 210.52 681.708 212.547 681.708 216.6C681.708 222.787 675.308 229.933 662.508 238.04C649.921 246.147 638.401 250.2 627.948 250.2C617.708 250.2 609.174 247.427 602.348 241.88C595.521 236.12 592.108 230.253 592.108 224.28C592.108 218.307 593.388 210.733 595.948 201.56C598.508 192.173 602.134 179.907 606.828 164.76C611.734 149.4 615.574 136.707 618.348 126.68C608.321 129.027 601.601 130.2 598.188 130.2C594.774 130.2 591.361 128.493 587.948 125.08C584.748 121.453 583.148 118.04 583.148 114.84C583.148 109.72 597.014 104.813 624.748 100.12C628.588 82.4129 630.508 66.7329 630.508 53.0799C630.508 46.6799 632.641 43.4799 636.908 43.4799C640.534 43.4799 645.014 45.8269 650.348 50.5199C655.681 54.9999 658.348 60.1199 658.348 65.8799C658.348 71.6399 656.534 81.7729 652.908 96.2799C665.068 95.2129 674.774 94.6799 682.028 94.6799C694.828 94.6799 701.228 97.4529 701.228 103C701.228 106.2 697.708 108.867 690.668 111C683.841 113.133 669.334 116.44 647.148 120.92C642.668 137.773 637.014 157.08 630.188 178.84C623.361 200.387 619.948 213.507 619.948 218.2ZM835.538 144.6C835.538 155.907 829.351 165.187 816.978 172.44C804.818 179.48 790.951 183 775.378 183C760.018 183 746.044 181.293 733.458 177.88C730.471 187.267 728.978 195.693 728.978 203.16C728.978 210.413 731.218 216.067 735.698 220.12C740.391 224.173 747.964 226.2 758.418 226.2C769.084 226.2 779.964 224.387 791.058 220.76C802.364 216.92 808.551 215 809.618 215C815.164 215 817.938 217.133 817.938 221.4C817.938 227.16 811.431 233.453 798.418 240.28C785.404 246.893 772.711 250.2 760.338 250.2C743.698 250.2 730.151 245.293 719.698 235.48C709.244 225.453 704.018 212.867 704.018 197.72C704.018 182.573 708.071 166.787 716.178 150.36C724.284 133.72 734.738 119.747 747.538 108.44C760.338 97.1329 773.031 91.4799 785.618 91.4799C798.204 91.4799 809.618 97.4529 819.858 109.4C830.311 121.347 835.538 133.08 835.538 144.6ZM787.218 116.76C779.324 116.76 771.111 120.92 762.578 129.24C754.044 137.347 746.791 147.48 740.818 159.64C749.351 161.56 759.058 162.52 769.938 162.52C780.818 162.52 790.311 160.813 798.418 157.4C806.524 153.773 810.578 149.08 810.578 143.32C810.578 137.56 807.911 131.693 802.578 125.72C797.458 119.747 792.338 116.76 787.218 116.76Z" fill="black"/>
</mask>
<g mask="url(#mask1_47_21)">
<path d="M270 184.92L269.032 184.668L269.029 184.682L270 184.92ZM237.04 243.16L236.266 243.793L236.274 243.804L236.283 243.814L237.04 243.16ZM286.96 11.1599L286.19 11.7975L286.202 11.8119L286.214 11.8259L286.96 11.1599ZM293.96 28.7599C293.96 68.7449 285.663 120.705 269.032 184.668L270.968 185.172C287.617 121.135 295.96 68.9879 295.96 28.7599H293.96ZM269.029 184.682C263.697 206.435 259.172 222.719 255.454 233.555C253.593 238.98 251.947 242.998 250.52 245.645C249.804 246.973 249.168 247.908 248.618 248.498C248.042 249.117 247.709 249.2 247.6 249.2V251.2C248.558 251.2 249.391 250.603 250.082 249.862C250.799 249.092 251.529 247.987 252.28 246.595C253.786 243.802 255.474 239.66 257.346 234.205C261.094 223.281 265.636 206.925 270.971 185.158L269.029 184.682ZM247.6 249.2C246.37 249.2 244.936 248.716 243.275 247.608C241.616 246.502 239.789 244.813 237.797 242.506L236.283 243.814C238.344 246.2 240.304 248.031 242.165 249.272C244.024 250.511 245.843 251.2 247.6 251.2V249.2ZM237.814 242.527C235.918 240.21 234.522 238.186 233.604 236.452C232.679 234.705 232.28 233.327 232.28 232.28H230.28C230.28 233.793 230.841 235.508 231.836 237.388C232.838 239.28 234.322 241.417 236.266 243.793L237.814 242.527ZM232.28 232.28C232.28 231.754 232.451 230.545 232.841 228.552C233.225 226.596 233.802 223.969 234.574 220.668C236.118 214.066 238.435 204.795 241.528 192.851L239.592 192.349C236.498 204.299 234.176 213.587 232.626 220.212C231.852 223.524 231.269 226.177 230.879 228.168C230.496 230.121 230.28 231.526 230.28 232.28H232.28ZM241.528 192.851C247.723 168.924 253.915 139.564 260.105 104.775L258.135 104.425C251.952 139.183 245.77 168.489 239.592 192.349L241.528 192.851ZM260.105 104.775C266.299 69.7459 269.4 38.2179 269.4 10.1999H267.4C267.4 38.0749 264.314 69.4809 258.135 104.425L260.105 104.775ZM269.4 10.1999C269.4 7.25478 269.831 5.37638 270.512 4.35458L268.848 3.24519C267.822 4.78339 267.4 7.17158 267.4 10.1999H269.4ZM270.512 4.35458C271.071 3.51628 272.419 2.87988 275.12 2.87988V0.879883C272.274 0.879883 269.996 1.52349 268.848 3.24519L270.512 4.35458ZM275.12 2.87988C276.164 2.87988 277.62 3.47988 279.543 4.98698C281.437 6.47118 283.652 8.73059 286.19 11.7975L287.73 10.5223C285.148 7.40249 282.83 5.02189 280.777 3.41279C278.753 1.82659 276.85 0.879883 275.12 0.879883V2.87988ZM286.214 11.8259C291.448 17.6879 293.96 23.3269 293.96 28.7599H295.96C295.96 22.6729 293.139 16.5789 287.706 10.4939L286.214 11.8259ZM422.038 106.2L421.267 106.837L421.273 106.845L422.038 106.2ZM426.198 156.12L425.362 155.57L424.963 156.177L425.417 156.745L426.198 156.12ZM425.878 195.16L424.895 194.972L424.894 194.979L424.893 194.986L425.878 195.16ZM421.078 223.64L420.088 223.499L420.084 223.522L420.082 223.545L421.078 223.64ZM419.798 234.52L420.784 234.684L420.786 234.672L419.798 234.52ZM418.198 242.2L417.227 241.957L417.217 241.999L417.21 242.042L418.198 242.2ZM402.838 240.28L401.892 240.605L401.898 240.623L401.905 240.641L402.838 240.28ZM398.678 214.04L399.677 214L399.568 211.293L397.892 213.421L398.678 214.04ZM316.758 237.72L316.085 238.46L316.094 238.468L316.103 238.476L316.758 237.72ZM316.758 164.12L317.652 164.567L317.654 164.563L316.758 164.12ZM369.238 135.96L369.964 136.647L369.97 136.64L369.238 135.96ZM334.038 220.44L333.42 221.226L333.438 221.24L333.456 221.254L334.038 220.44ZM378.518 203.48L379.247 204.164L379.253 204.158L378.518 203.48ZM404.758 153.88L405.727 154.125L405.733 154.101L405.738 154.076L404.758 153.88ZM410.198 148.12L410.407 149.098L411.198 148.928V148.12H410.198ZM395.478 92.4799C404.689 92.4799 413.284 97.1729 421.267 106.837L422.808 105.563C414.578 95.5999 405.466 90.4799 395.478 90.4799V92.4799ZM421.273 106.845C429.313 116.365 433.198 124.888 433.198 132.44H435.198C435.198 124.206 430.976 115.235 422.802 105.555L421.273 106.845ZM433.198 132.44C433.198 139.879 430.616 147.584 425.362 155.57L427.033 156.67C432.445 148.443 435.198 140.361 435.198 132.44H433.198ZM425.417 156.745C427.93 159.886 429.038 162.436 429.038 164.44H431.038C431.038 161.75 429.585 158.754 426.978 155.495L425.417 156.745ZM429.038 164.44C429.038 170.308 427.669 180.463 424.895 194.972L426.86 195.348C429.633 180.843 431.038 170.519 431.038 164.44H429.038ZM424.893 194.986C422.333 209.489 420.73 218.999 420.088 223.499L422.067 223.781C422.705 219.321 424.302 209.844 426.862 195.334L424.893 194.986ZM420.082 223.545C419.656 228.016 419.232 231.621 418.809 234.368L420.786 234.672C421.217 231.872 421.645 228.224 422.073 223.735L420.082 223.545ZM418.811 234.356C418.389 236.889 417.861 239.423 417.227 241.957L419.168 242.443C419.814 239.857 420.353 237.271 420.784 234.684L418.811 234.356ZM417.21 242.042C416.794 244.642 416.134 246.465 415.306 247.616C414.512 248.718 413.573 249.2 412.438 249.2V251.2C414.288 251.2 415.803 250.348 416.929 248.784C418.021 247.268 418.748 245.091 419.185 242.358L417.21 242.042ZM412.438 249.2C409.286 249.2 406.315 246.493 403.77 239.919L401.905 240.641C404.48 247.294 407.909 251.2 412.438 251.2V249.2ZM403.783 239.955C401.479 233.253 400.101 224.611 399.677 214L397.678 214.08C398.107 224.802 399.502 233.654 401.892 240.605L403.783 239.955ZM397.892 213.421C378.938 237.486 361.599 249.2 345.878 249.2V251.2C362.583 251.2 380.443 238.807 399.463 214.659L397.892 213.421ZM345.878 249.2C336.368 249.2 326.885 245.174 317.412 236.964L316.103 238.476C325.83 246.906 335.76 251.2 345.878 251.2V249.2ZM317.43 236.98C308.163 228.555 303.678 220.057 303.678 211.48H301.678C301.678 220.823 306.579 229.818 316.085 238.46L317.43 236.98ZM303.678 211.48C303.678 198.904 308.295 183.28 317.652 164.567L315.863 163.673C306.446 182.507 301.678 198.456 301.678 211.48H303.678ZM317.654 164.563C326.992 145.675 339.086 128.913 353.94 114.272L352.536 112.848C337.522 127.647 325.297 144.591 315.861 163.677L317.654 164.563ZM353.94 114.272C368.791 99.6329 382.632 92.4799 395.478 92.4799V90.4799C381.87 90.4799 367.55 98.0469 352.536 112.848L353.94 114.272ZM411.198 147.8C411.198 137.843 410.211 130.25 408.167 125.11C407.141 122.532 405.826 120.513 404.18 119.133C402.515 117.739 400.56 117.04 398.358 117.04V119.04C400.102 119.04 401.6 119.581 402.895 120.667C404.209 121.767 405.361 123.468 406.308 125.85C408.21 130.63 409.198 137.917 409.198 147.8H411.198ZM398.358 117.04C389.589 117.04 379.626 123.302 368.505 135.28L369.97 136.64C381.035 124.724 390.486 119.04 398.358 119.04V117.04ZM368.511 135.273C357.35 147.078 347.91 160.489 340.188 175.503L341.967 176.417C349.605 161.564 358.938 148.309 369.964 136.647L368.511 135.273ZM340.188 175.503C332.491 190.47 328.558 202.486 328.558 211.48H330.558C330.558 202.98 334.304 191.317 341.967 176.417L340.188 175.503ZM328.558 211.48C328.558 215.43 330.205 218.7 333.42 221.226L334.655 219.654C331.897 217.486 330.558 214.783 330.558 211.48H328.558ZM333.456 221.254C336.63 223.521 340.359 224.64 344.598 224.64V222.64C340.73 222.64 337.418 221.626 334.619 219.626L333.456 221.254ZM344.598 224.64C355.058 224.64 366.616 217.651 379.247 204.164L377.788 202.796C365.246 216.189 354.19 222.64 344.598 222.64V224.64ZM379.253 204.158C391.961 190.372 400.783 173.687 405.727 154.125L403.788 153.635C398.919 172.9 390.247 189.281 377.782 202.802L379.253 204.158ZM405.738 154.076C406.03 152.617 406.574 151.521 407.325 150.727C408.071 149.936 409.08 149.382 410.407 149.098L409.988 147.142C408.329 147.498 406.937 148.224 405.87 149.353C404.808 150.479 404.125 151.943 403.777 153.684L405.738 154.076ZM411.198 148.12V147.8H409.198V148.12H411.198ZM532.677 217.56L533.04 218.492L533.049 218.488L532.677 217.56ZM538.758 238.04L538.222 237.195L538.216 237.199L538.758 238.04ZM478.598 241.88L477.953 242.644L477.96 242.65L477.967 242.656L478.598 241.88ZM472.198 201.56L473.161 201.829L473.162 201.823L472.198 201.56ZM483.078 164.76L482.125 164.456L482.122 164.464L483.078 164.76ZM494.598 126.68L495.561 126.947L496.011 125.322L494.37 125.706L494.598 126.68ZM464.198 125.08L463.448 125.742L463.468 125.765L463.49 125.787L464.198 125.08ZM500.998 100.12L501.164 101.106L501.831 100.993L501.975 100.332L500.998 100.12ZM526.598 50.5199L525.937 51.2709L525.946 51.2779L525.954 51.2859L526.598 50.5199ZM529.158 96.2799L528.187 96.0369L527.847 97.3989L529.245 97.2759L529.158 96.2799ZM566.918 111L566.627 110.043L566.619 110.046L566.918 111ZM523.398 120.92L523.2 119.94L522.591 120.063L522.431 120.663L523.398 120.92ZM506.438 178.84L507.391 179.142L507.392 179.139L506.438 178.84ZM495.198 218.2C495.198 220.422 495.848 222.259 497.304 223.517C498.732 224.75 500.77 225.28 503.238 225.28V223.28C501.012 223.28 499.53 222.796 498.611 222.003C497.721 221.234 497.198 220.031 497.198 218.2H495.198ZM503.238 225.28C511.516 225.28 521.459 222.996 533.04 218.492L532.315 216.628C520.856 221.084 511.173 223.28 503.238 223.28V225.28ZM533.049 218.488C538.912 216.143 543.46 214.388 546.697 213.221C548.317 212.637 549.597 212.203 550.546 211.917C551.021 211.774 551.402 211.671 551.694 211.605C552.004 211.535 552.155 211.52 552.198 211.52V209.52C551.92 209.52 551.587 209.579 551.251 209.655C550.897 209.735 550.468 209.852 549.969 210.003C548.971 210.303 547.652 210.75 546.018 211.339C542.749 212.518 538.176 214.283 532.306 216.632L533.049 218.488ZM552.198 211.52C553.949 211.52 555.083 211.98 555.792 212.728C556.51 213.486 556.958 214.714 556.958 216.6H558.958C558.958 214.432 558.445 212.621 557.243 211.352C556.032 210.074 554.286 209.52 552.198 209.52V211.52ZM556.958 216.6C556.958 219.342 555.535 222.446 552.413 225.933C549.299 229.41 544.584 233.166 538.222 237.195L539.293 238.885C545.731 234.807 550.616 230.937 553.902 227.267C557.18 223.607 558.958 220.044 558.958 216.6H556.958ZM538.216 237.199C525.724 245.245 514.393 249.2 504.198 249.2V251.2C514.909 251.2 526.617 247.049 539.299 238.881L538.216 237.199ZM504.198 249.2C494.148 249.2 485.848 246.483 479.228 241.104L477.967 242.656C485 248.371 493.767 251.2 504.198 251.2V249.2ZM479.242 241.116C472.527 235.45 469.358 229.837 469.358 224.28H467.358C467.358 230.67 471.014 236.79 477.953 242.644L479.242 241.116ZM469.358 224.28C469.358 218.435 470.612 210.96 473.161 201.829L471.234 201.291C468.663 210.507 467.358 218.178 467.358 224.28H469.358ZM473.162 201.823C475.718 192.452 479.341 180.198 484.033 165.056L482.122 164.464C477.427 179.616 473.797 191.895 471.233 201.297L473.162 201.823ZM484.03 165.064C488.939 149.698 492.783 136.991 495.561 126.947L493.634 126.413C490.865 136.423 487.03 149.102 482.125 164.456L484.03 165.064ZM494.37 125.706C484.323 128.058 477.716 129.2 474.438 129.2V131.2C477.986 131.2 484.819 129.996 494.825 127.654L494.37 125.706ZM474.438 129.2C471.383 129.2 468.209 127.677 464.905 124.373L463.49 125.787C467.013 129.309 470.665 131.2 474.438 131.2V129.2ZM464.947 124.418C461.829 120.884 460.398 117.698 460.398 114.84H458.398C458.398 118.382 460.166 122.023 463.448 125.742L464.947 124.418ZM460.398 114.84C460.398 114.048 460.936 113.041 462.583 111.85C464.203 110.679 466.7 109.477 470.131 108.263C476.981 105.839 487.313 103.45 501.164 101.106L500.831 99.1339C486.949 101.483 476.48 103.895 469.464 106.377C465.962 107.616 463.258 108.894 461.412 110.23C459.592 111.545 458.398 113.072 458.398 114.84H460.398ZM501.975 100.332C505.825 82.5769 507.758 66.8229 507.758 53.0799H505.758C505.758 66.6429 503.85 82.2499 500.02 99.9079L501.975 100.332ZM507.758 53.0799C507.758 49.9599 508.283 47.7939 509.19 46.4349C510.048 45.1469 511.315 44.4799 513.158 44.4799V42.4799C510.733 42.4799 508.8 43.4129 507.525 45.3249C506.298 47.1659 505.758 49.7999 505.758 53.0799H507.758ZM513.158 44.4799C516.396 44.4799 520.635 46.6049 525.937 51.2709L527.258 49.7689C521.893 45.0479 517.172 42.4799 513.158 42.4799V44.4799ZM525.954 51.2859C531.113 55.6189 533.598 60.4769 533.598 65.8799H535.598C535.598 59.7629 532.748 54.3809 527.241 49.7539L525.954 51.2859ZM533.598 65.8799C533.598 71.5009 531.816 81.5229 528.187 96.0369L530.128 96.5229C533.752 82.0229 535.598 71.7789 535.598 65.8799H533.598ZM529.245 97.2759C541.393 96.2109 551.066 95.6799 558.278 95.6799V93.6799C550.982 93.6799 541.242 94.2159 529.07 95.2839L529.245 97.2759ZM558.278 95.6799C564.636 95.6799 569.27 96.3729 572.28 97.6779C573.774 98.3249 574.817 99.1009 575.485 99.9699C576.142 100.825 576.478 101.82 576.478 103H578.478C578.478 101.406 578.013 99.9749 577.07 98.7499C576.138 97.5389 574.781 96.5819 573.075 95.8419C569.685 94.3729 564.719 93.6799 558.278 93.6799V95.6799ZM576.478 103C576.478 104.179 575.845 105.382 574.234 106.603C572.61 107.833 570.099 108.991 566.627 110.043L567.208 111.957C570.776 110.876 573.545 109.634 575.441 108.197C577.35 106.752 578.478 105.021 578.478 103H576.478ZM566.619 110.046C559.851 112.161 545.397 115.458 523.2 119.94L523.595 121.9C545.772 117.422 560.331 114.106 567.216 111.954L566.619 110.046ZM522.431 120.663C517.956 137.499 512.307 156.791 505.483 178.541L507.392 179.139C514.221 157.369 519.879 138.048 524.364 121.177L522.431 120.663ZM505.484 178.538C502.069 189.319 499.503 198.004 497.79 204.588C496.088 211.13 495.198 215.705 495.198 218.2H497.198C497.198 216.001 498.014 211.67 499.725 205.092C501.426 198.556 503.98 189.908 507.391 179.142L505.484 178.538ZM656.427 217.56L656.79 218.492L656.799 218.488L656.427 217.56ZM662.508 238.04L661.972 237.195L661.966 237.199L662.508 238.04ZM602.348 241.88L601.703 242.644L601.71 242.65L601.717 242.656L602.348 241.88ZM595.948 201.56L596.911 201.829L596.912 201.823L595.948 201.56ZM606.828 164.76L605.875 164.456L605.872 164.464L606.828 164.76ZM618.348 126.68L619.311 126.947L619.761 125.322L618.12 125.706L618.348 126.68ZM587.948 125.08L587.198 125.742L587.218 125.765L587.24 125.787L587.948 125.08ZM624.748 100.12L624.914 101.106L625.581 100.993L625.725 100.332L624.748 100.12ZM650.348 50.5199L649.687 51.2709L649.696 51.2779L649.704 51.2859L650.348 50.5199ZM652.908 96.2799L651.937 96.0369L651.597 97.3989L652.995 97.2759L652.908 96.2799ZM690.668 111L690.377 110.043L690.369 110.046L690.668 111ZM647.148 120.92L646.95 119.94L646.341 120.063L646.181 120.663L647.148 120.92ZM630.188 178.84L631.141 179.142L631.142 179.139L630.188 178.84ZM618.948 218.2C618.948 220.422 619.598 222.259 621.054 223.517C622.482 224.75 624.52 225.28 626.988 225.28V223.28C624.762 223.28 623.28 222.796 622.361 222.003C621.471 221.234 620.948 220.031 620.948 218.2H618.948ZM626.988 225.28C635.266 225.28 645.209 222.996 656.79 218.492L656.065 216.628C644.606 221.084 634.923 223.28 626.988 223.28V225.28ZM656.799 218.488C662.662 216.143 667.21 214.388 670.447 213.221C672.067 212.637 673.347 212.203 674.296 211.917C674.771 211.774 675.152 211.671 675.444 211.605C675.754 211.535 675.905 211.52 675.948 211.52V209.52C675.67 209.52 675.337 209.579 675.001 209.655C674.647 209.735 674.218 209.852 673.719 210.003C672.721 210.303 671.402 210.75 669.768 211.339C666.499 212.518 661.926 214.283 656.056 216.632L656.799 218.488ZM675.948 211.52C677.699 211.52 678.833 211.98 679.542 212.728C680.26 213.486 680.708 214.714 680.708 216.6H682.708C682.708 214.432 682.195 212.621 680.993 211.352C679.782 210.074 678.036 209.52 675.948 209.52V211.52ZM680.708 216.6C680.708 219.342 679.285 222.446 676.163 225.933C673.049 229.41 668.334 233.166 661.972 237.195L663.043 238.885C669.481 234.807 674.366 230.937 677.652 227.267C680.93 223.607 682.708 220.044 682.708 216.6H680.708ZM661.966 237.199C649.474 245.245 638.143 249.2 627.948 249.2V251.2C638.659 251.2 650.367 247.049 663.049 238.881L661.966 237.199ZM627.948 249.2C617.898 249.2 609.598 246.483 602.978 241.104L601.717 242.656C608.75 248.371 617.517 251.2 627.948 251.2V249.2ZM602.992 241.116C596.277 235.45 593.108 229.837 593.108 224.28H591.108C591.108 230.67 594.764 236.79 601.703 242.644L602.992 241.116ZM593.108 224.28C593.108 218.435 594.362 210.96 596.911 201.829L594.984 201.291C592.413 210.507 591.108 218.178 591.108 224.28H593.108ZM596.912 201.823C599.468 192.452 603.091 180.198 607.783 165.056L605.872 164.464C601.177 179.616 597.547 191.895 594.983 201.297L596.912 201.823ZM607.78 165.064C612.689 149.698 616.533 136.991 619.311 126.947L617.384 126.413C614.615 136.423 610.78 149.102 605.875 164.456L607.78 165.064ZM618.12 125.706C608.073 128.058 601.466 129.2 598.188 129.2V131.2C601.736 131.2 608.569 129.996 618.575 127.654L618.12 125.706ZM598.188 129.2C595.133 129.2 591.959 127.677 588.655 124.373L587.24 125.787C590.763 129.309 594.415 131.2 598.188 131.2V129.2ZM588.697 124.418C585.579 120.884 584.148 117.698 584.148 114.84H582.148C582.148 118.382 583.916 122.023 587.198 125.742L588.697 124.418ZM584.148 114.84C584.148 114.048 584.686 113.041 586.333 111.85C587.953 110.679 590.45 109.477 593.881 108.263C600.731 105.839 611.063 103.45 624.914 101.106L624.581 99.1339C610.699 101.483 600.23 103.895 593.214 106.377C589.712 107.616 587.008 108.894 585.162 110.23C583.342 111.545 582.148 113.072 582.148 114.84H584.148ZM625.725 100.332C629.575 82.5769 631.508 66.8229 631.508 53.0799H629.508C629.508 66.6429 627.6 82.2499 623.77 99.9079L625.725 100.332ZM631.508 53.0799C631.508 49.9599 632.033 47.7939 632.94 46.4349C633.798 45.1469 635.065 44.4799 636.908 44.4799V42.4799C634.483 42.4799 632.55 43.4129 631.275 45.3249C630.048 47.1659 629.508 49.7999 629.508 53.0799H631.508ZM636.908 44.4799C640.146 44.4799 644.385 46.6049 649.687 51.2709L651.008 49.7689C645.643 45.0479 640.922 42.4799 636.908 42.4799V44.4799ZM649.704 51.2859C654.863 55.6189 657.348 60.4769 657.348 65.8799H659.348C659.348 59.7629 656.498 54.3809 650.991 49.7539L649.704 51.2859ZM657.348 65.8799C657.348 71.5009 655.566 81.5229 651.937 96.0369L653.878 96.5229C657.502 82.0229 659.348 71.7789 659.348 65.8799H657.348ZM652.995 97.2759C665.143 96.2109 674.816 95.6799 682.028 95.6799V93.6799C674.732 93.6799 664.992 94.2159 652.82 95.2839L652.995 97.2759ZM682.028 95.6799C688.386 95.6799 693.02 96.3729 696.03 97.6779C697.524 98.3249 698.567 99.1009 699.235 99.9699C699.892 100.825 700.228 101.82 700.228 103H702.228C702.228 101.406 701.763 99.9749 700.82 98.7499C699.888 97.5389 698.531 96.5819 696.825 95.8419C693.435 94.3729 688.469 93.6799 682.028 93.6799V95.6799ZM700.228 103C700.228 104.179 699.595 105.382 697.984 106.603C696.36 107.833 693.849 108.991 690.377 110.043L690.958 111.957C694.526 110.876 697.295 109.634 699.191 108.197C701.1 106.752 702.228 105.021 702.228 103H700.228ZM690.369 110.046C683.601 112.161 669.147 115.458 646.95 119.94L647.345 121.9C669.522 117.422 684.081 114.106 690.966 111.954L690.369 110.046ZM646.181 120.663C641.706 137.499 636.057 156.791 629.233 178.541L631.142 179.139C637.971 157.369 643.629 138.048 648.114 121.177L646.181 120.663ZM629.234 178.538C625.819 189.319 623.253 198.004 621.54 204.588C619.838 211.13 618.948 215.705 618.948 218.2H620.948C620.948 216.001 621.764 211.67 623.475 205.092C625.176 198.556 627.73 189.908 631.141 179.142L629.234 178.538ZM816.978 172.44L817.479 173.305L817.483 173.303L816.978 172.44ZM733.458 177.88L733.719 176.915L732.795 176.664L732.505 177.577L733.458 177.88ZM735.698 220.12L735.027 220.862L735.035 220.869L735.044 220.877L735.698 220.12ZM791.058 220.76L791.368 221.711L791.379 221.707L791.058 220.76ZM798.418 240.28L798.871 241.172L798.882 241.166L798.418 240.28ZM719.698 235.48L719.005 236.202L719.013 236.209L719.698 235.48ZM716.178 150.36L717.074 150.803L717.076 150.798L716.178 150.36ZM819.858 109.4L819.098 110.051L819.105 110.059L819.858 109.4ZM762.578 129.24L763.266 129.965L763.276 129.956L762.578 129.24ZM740.818 159.64L739.92 159.199L739.361 160.337L740.598 160.616L740.818 159.64ZM798.418 157.4L798.806 158.322L798.816 158.317L798.826 158.313L798.418 157.4ZM802.578 125.72L801.818 126.371L801.825 126.378L801.832 126.386L802.578 125.72ZM834.538 144.6C834.538 155.454 828.634 164.448 816.472 171.577L817.483 173.303C830.068 165.926 836.538 156.359 836.538 144.6H834.538ZM816.476 171.575C804.485 178.517 790.794 182 775.378 182V184C791.107 184 805.15 180.443 817.479 173.305L816.476 171.575ZM775.378 182C760.091 182 746.207 180.301 733.719 176.915L733.196 178.845C745.881 182.285 759.944 184 775.378 184V182ZM732.505 177.577C729.496 187.032 727.978 195.564 727.978 203.16H729.978C729.978 195.823 731.446 187.501 734.41 178.183L732.505 177.577ZM727.978 203.16C727.978 210.634 730.295 216.581 735.027 220.862L736.368 219.378C732.14 215.552 729.978 210.192 729.978 203.16H727.978ZM735.044 220.877C740.008 225.164 747.876 227.2 758.418 227.2V225.2C748.053 225.2 740.774 223.183 736.351 219.363L735.044 220.877ZM758.418 227.2C769.199 227.2 780.184 225.367 791.368 221.71L790.747 219.81C779.744 223.406 768.969 225.2 758.418 225.2V227.2ZM791.379 221.707C797.03 219.788 801.393 218.351 804.474 217.395C806.015 216.917 807.227 216.561 808.113 216.327C808.557 216.209 808.91 216.124 809.178 216.07C809.311 216.042 809.417 216.024 809.497 216.013C809.536 216.007 809.567 216.004 809.589 216.002C809.611 216 809.62 216 809.618 216V214C809.375 214 809.076 214.049 808.777 214.11C808.458 214.176 808.064 214.271 807.602 214.393C806.675 214.639 805.433 215.003 803.881 215.485C800.775 216.449 796.392 217.892 790.736 219.813L791.379 221.707ZM809.618 216C812.291 216 814.112 216.519 815.248 217.393C816.334 218.228 816.938 219.501 816.938 221.4H818.938C818.938 219.032 818.154 217.105 816.467 215.807C814.83 214.548 812.491 214 809.618 214V216ZM816.938 221.4C816.938 223.888 815.529 226.658 812.362 229.721C809.207 232.773 804.421 236.002 797.953 239.394L798.882 241.166C805.428 237.732 810.402 234.4 813.753 231.159C817.092 227.929 818.938 224.672 818.938 221.4H816.938ZM797.964 239.389C785.066 245.943 772.527 249.2 760.338 249.2V251.2C772.894 251.2 785.742 247.843 798.871 241.171L797.964 239.389ZM760.338 249.2C743.908 249.2 730.62 244.362 720.382 234.751L719.013 236.209C729.681 246.224 743.487 251.2 760.338 251.2V249.2ZM720.39 234.758C710.143 224.93 705.018 212.608 705.018 197.72H703.018C703.018 213.125 708.345 225.977 719.005 236.202L720.39 234.758ZM705.018 197.72C705.018 182.756 709.021 167.12 717.074 150.803L715.281 149.917C707.12 166.453 703.018 182.391 703.018 197.72H705.018ZM717.076 150.798C725.13 134.266 735.506 120.402 748.2 109.189L746.875 107.691C733.969 119.091 723.438 133.174 715.279 149.922L717.076 150.798ZM748.2 109.189C760.883 97.9859 773.35 92.4799 785.618 92.4799V90.4799C772.712 90.4799 759.792 96.2799 746.875 107.691L748.2 109.189ZM785.618 92.4799C797.841 92.4799 808.997 98.2659 819.098 110.051L820.617 108.749C810.238 96.6409 798.567 90.4799 785.618 90.4799V92.4799ZM819.105 110.059C829.459 121.892 834.538 133.4 834.538 144.6H836.538C836.538 132.76 831.163 120.801 820.61 108.741L819.105 110.059ZM787.218 115.76C778.957 115.76 770.506 120.113 761.879 128.524L763.276 129.956C771.716 121.727 779.692 117.76 787.218 117.76V115.76ZM761.889 128.515C753.258 136.715 745.938 146.949 739.92 159.199L741.715 160.081C747.644 148.011 754.831 137.979 763.266 129.965L761.889 128.515ZM740.598 160.616C749.218 162.555 759.001 163.52 769.938 163.52V161.52C759.114 161.52 749.483 160.565 741.037 158.664L740.598 160.616ZM769.938 163.52C780.92 163.52 790.551 161.797 798.806 158.322L798.029 156.478C790.071 159.829 780.715 161.52 769.938 161.52V163.52ZM798.826 158.313C807.073 154.623 811.578 149.669 811.578 143.32H809.578C809.578 148.491 805.975 152.923 798.009 156.487L798.826 158.313ZM811.578 143.32C811.578 137.233 808.757 131.139 803.323 125.054L801.832 126.386C807.065 132.248 809.578 137.887 809.578 143.32H811.578ZM803.337 125.069C798.129 118.994 792.757 115.76 787.218 115.76V117.76C791.918 117.76 796.786 120.5 801.818 126.371L803.337 125.069Z" fill="black"/>
</g>
</svg>
