<svg width="1311" height="444" viewBox="0 0 1311 444" fill="none" xmlns="http://www.w3.org/2000/svg">
<path opacity="0.5" d="M15.0308 270H253.246V420H15.0308V270Z" fill="#9AFB07"/>
<path d="M253.416 180.5H20.6477C16.2294 180.5 12.6477 184.082 12.6477 188.5V383.588C12.6477 384.194 12.7143 384.792 12.8759 385.376C14.4356 391.011 24.4518 422.14 56.8732 428.5C90.0184 435.003 205.991 429.425 222.312 428.599C223.613 428.533 224.822 428.147 225.933 427.467C249.072 413.304 254.393 403.259 260.914 385.848C261.247 384.96 261.416 384.014 261.416 383.065V188.5C261.416 184.082 257.835 180.5 253.416 180.5Z" stroke="#5BD346" stroke-width="24"/>
<path d="M263.427 233.5H321.887C322.777 233.5 323.65 233.641 324.467 233.996C329.258 236.076 346.35 245.003 346.35 266.5C346.35 291.5 346.35 310 346.35 335C346.35 360 323.232 360 323.232 360C323.232 360 323.232 360 323.232 360H263.427" stroke="#5BD346" stroke-width="24"/>
<path opacity="0.6" d="M102.607 50.5L99.6377 56.9706C95.0472 66.9746 96.9403 78.7593 104.433 86.8224V86.8224C111.858 94.8124 113.79 106.466 109.341 116.425L102.607 131.5" stroke="#9AFB07" stroke-width="24" stroke-linecap="round"/>
<path opacity="0.6" d="M162.412 12C162.412 12 150.35 27.5 146.832 47V47C142.237 72.4694 179.559 86.0911 170.2 110.22C167.482 117.228 164.646 123.412 162.412 126.5" stroke="#9AFB07" stroke-width="24" stroke-linecap="round"/>
<path d="M447.057 425V170.455H485.462V391.939H600.803V425H447.057ZM697.19 429.226C685.092 429.226 674.155 426.989 664.377 422.514C654.6 417.957 646.852 411.37 641.135 402.752C635.501 394.135 632.683 383.57 632.683 371.058C632.683 360.286 634.755 351.42 638.898 344.46C643.041 337.5 648.634 331.99 655.677 327.93C662.72 323.87 670.592 320.804 679.292 318.732C687.992 316.661 696.858 315.086 705.89 314.009C717.325 312.683 726.605 311.606 733.731 310.778C740.857 309.866 746.036 308.416 749.267 306.428C752.499 304.439 754.114 301.207 754.114 296.733V295.863C754.114 285.008 751.049 276.598 744.917 270.632C738.868 264.666 729.836 261.683 717.822 261.683C705.31 261.683 695.45 264.459 688.241 270.011C681.115 275.479 676.185 281.57 673.45 288.281L638.525 280.327C642.668 268.726 648.717 259.363 656.671 252.237C664.709 245.028 673.947 239.808 684.388 236.577C694.828 233.262 705.807 231.605 717.325 231.605C724.948 231.605 733.027 232.517 741.561 234.339C750.179 236.08 758.216 239.311 765.673 244.034C773.214 248.757 779.387 255.51 784.193 264.293C788.998 272.994 791.401 284.304 791.401 298.224V425H755.109V398.899H753.617C751.214 403.705 747.61 408.428 742.804 413.068C737.998 417.708 731.825 421.561 724.285 424.627C716.745 427.693 707.713 429.226 697.19 429.226ZM705.269 399.396C715.543 399.396 724.326 397.366 731.618 393.306C738.992 389.246 744.586 383.943 748.397 377.397C752.291 370.768 754.239 363.684 754.239 356.143V331.534C752.913 332.86 750.344 334.103 746.533 335.263C742.804 336.34 738.537 337.293 733.731 338.121C728.925 338.867 724.243 339.571 719.686 340.234C715.129 340.814 711.317 341.312 708.251 341.726C701.043 342.637 694.455 344.17 688.489 346.325C682.606 348.479 677.883 351.586 674.32 355.646C670.84 359.624 669.1 364.927 669.1 371.555C669.1 380.753 672.497 387.713 679.292 392.436C686.086 397.076 694.745 399.396 705.269 399.396ZM930.016 234.091V263.92H825.736V234.091H930.016ZM853.702 188.352H890.864V368.945C890.864 376.154 891.941 381.581 894.096 385.227C896.25 388.79 899.026 391.235 902.423 392.56C905.903 393.803 909.673 394.425 913.734 394.425C916.716 394.425 919.327 394.218 921.564 393.803C923.801 393.389 925.541 393.058 926.784 392.809L933.496 423.509C931.341 424.337 928.275 425.166 924.298 425.994C920.321 426.906 915.349 427.403 909.383 427.486C899.606 427.652 890.491 425.911 882.04 422.266C873.588 418.62 866.752 412.985 861.532 405.362C856.312 397.739 853.702 388.169 853.702 376.651V188.352ZM1060.24 234.091V263.92H955.961V234.091H1060.24ZM983.926 188.352H1021.09V368.945C1021.09 376.154 1022.17 381.581 1024.32 385.227C1026.47 388.79 1029.25 391.235 1032.65 392.56C1036.13 393.803 1039.9 394.425 1043.96 394.425C1046.94 394.425 1049.55 394.218 1051.79 393.803C1054.03 393.389 1055.77 393.058 1057.01 392.809L1063.72 423.509C1061.57 424.337 1058.5 425.166 1054.52 425.994C1050.55 426.906 1045.57 427.403 1039.61 427.486C1029.83 427.652 1020.72 425.911 1012.26 422.266C1003.81 418.62 996.977 412.985 991.756 405.362C986.536 397.739 983.926 388.169 983.926 376.651V188.352ZM1181.58 428.853C1162.77 428.853 1146.57 424.834 1132.98 416.797C1119.47 408.677 1109.03 397.283 1101.66 382.617C1094.37 367.868 1090.72 350.592 1090.72 330.788C1090.72 311.233 1094.37 293.999 1101.66 279.084C1109.03 264.169 1119.31 252.527 1132.48 244.158C1145.74 235.79 1161.24 231.605 1178.97 231.605C1189.74 231.605 1200.18 233.387 1210.29 236.95C1220.4 240.513 1229.47 246.106 1237.51 253.729C1245.55 261.352 1251.88 271.254 1256.52 283.434C1261.16 295.531 1263.48 310.239 1263.48 327.557V340.732H1111.73V312.891H1227.07C1227.07 303.113 1225.08 294.454 1221.1 286.914C1217.12 279.291 1211.53 273.284 1204.32 268.892C1197.2 264.5 1188.83 262.305 1179.22 262.305C1168.78 262.305 1159.66 264.873 1151.87 270.011C1144.17 275.065 1138.2 281.694 1133.98 289.897C1129.83 298.017 1127.76 306.842 1127.76 316.371V338.121C1127.76 350.882 1130 361.737 1134.47 370.685C1139.03 379.634 1145.37 386.47 1153.49 391.193C1161.61 395.833 1171.1 398.153 1181.95 398.153C1188.99 398.153 1195.42 397.159 1201.22 395.17C1207.02 393.099 1212.03 390.033 1216.25 385.973C1220.48 381.913 1223.71 376.9 1225.95 370.934L1261.12 377.273C1258.31 387.63 1253.25 396.703 1245.96 404.492C1238.75 412.198 1229.68 418.205 1218.74 422.514C1207.89 426.74 1195.5 428.853 1181.58 428.853Z" fill="#5BD346"/>
</svg>
